<?xml version="1.0" encoding="utf-8"?>
<!-- Generator: Adobe Illustrator 25.0.1, SVG Export Plug-In . SVG Version: 6.00 Build 0)  -->
<svg version="1.1" id="Réteg_1" xmlns="http://www.w3.org/2000/svg" xmlns:xlink="http://www.w3.org/1999/xlink" x="0px" y="0px"
	 viewBox="0 0 1280 758" style="enable-background:new 0 0 1280 758;" xml:space="preserve">
<style type="text/css">
	.st0{fill:#001427;}
	.st1{fill:url(#path4512-3_12_);}
	.st2{fill:url(#path4512-3_13_);}
	.st3{fill:url(#path4512-3_14_);}
	.st4{fill:url(#path4512-3_15_);}
	.st5{fill:url(#path4512-3_16_);}
	.st6{fill:url(#path4512-3_17_);}
	.st7{fill:url(#path4512-3_18_);}
	.st8{fill:url(#path4512-3_19_);}
	.st9{fill:url(#path4512-3_20_);}
	.st10{fill:url(#path4512-3_21_);}
	.st11{fill:url(#path4512-3_22_);}
	.st12{fill:url(#path4512-3_23_);}
	.st13{display:none;}
	.st14{display:inline;fill:#EAEAEA;}
	.st15{opacity:0.8;fill:#001B29;enable-background:new    ;}
	.st16{fill:#003049;}
	.st17{fill:#00507A;}
	.st18{fill:#006AA3;}
	.st19{fill:#1FB0FF;}
	.st20{fill:#3A0CA3;}
	.st21{fill:#480CA8;}
	.st22{fill:#560BAD;}
	.st23{fill:#7209B7;}
	.st24{fill:url(#SVGID_1_);}
	.st25{fill:#1B4332;}
	.st26{fill:#40916C;}
	.st27{fill:#74C69D;}
	.st28{fill:#9D064A;}
	.st29{fill:#F72585;}
	.st30{fill:#D90866;}
	.st31{opacity:0.9;}
	.st32{opacity:0.8;}
	.st33{fill:#2D6A4F;}
	.st34{fill:url(#SVGID_2_);}
</style>
<g>
	<rect x="-330" y="-191.4" class="st0" width="1959" height="1110"/>
	<path d="M1628.5-190.9v1109h-1958v-1109H1628.5 M1629.5-191.9h-1960v1111h1960V-191.9L1629.5-191.9z"/>
</g>
<g id="layer1_1_" transform="translate(0,-1036.3622)">
	
		<linearGradient id="path4512-3_12_" gradientUnits="userSpaceOnUse" x1="25251.1797" y1="-6804.4727" x2="25809.916" y2="-6804.4727" gradientTransform="matrix(4.573926e-02 0 0 -4.561282e-02 -235.5597 925.2575)">
		<stop  offset="0" style="stop-color:#FCD635"/>
		<stop  offset="1" style="stop-color:#F7A928"/>
	</linearGradient>
	<path id="path4512-3_1_" class="st1" d="M940,1247.7c-0.9,0.6-6.7-3.5-7.9-3.5c-1.1,0-7,4-7.9,3.3s1.2-7.5,0.9-8.5
		c-0.3-1.1-6-5.4-5.6-6.5s7.5-1.2,8.4-1.8c0.9-0.6,3.3-7.4,4.4-7.3c1.1,0,3.4,6.8,4.3,7.4c0.9,0.7,8,0.9,8.4,1.9
		c0.3,1.1-5.4,5.3-5.7,6.4C938.9,1240.2,940.9,1247.1,940,1247.7z"/>
</g>
<g id="layer1" transform="translate(0,-1036.3622)">
	
		<linearGradient id="path4512-3_13_" gradientUnits="userSpaceOnUse" x1="29525.1777" y1="-3569.7703" x2="29972.6426" y2="-3569.7703" gradientTransform="matrix(4.573926e-02 0 0 -4.561282e-02 -235.5597 925.2575)">
		<stop  offset="0" style="stop-color:#FCD635"/>
		<stop  offset="1" style="stop-color:#F7A928"/>
	</linearGradient>
	<path id="path4512-3" class="st2" d="M1131.4,1097.8c-0.7,0.5-5.4-2.8-6.3-2.8c-0.9,0-5.6,3.2-6.3,2.7c-0.7-0.5,1-6,0.7-6.8
		c-0.3-0.9-4.8-4.3-4.5-5.2c0.3-0.8,6-0.9,6.7-1.4c0.7-0.5,2.7-5.9,3.6-5.9s2.7,5.4,3.5,5.9c0.7,0.5,6.4,0.7,6.7,1.6
		c0.3,0.9-4.3,4.3-4.6,5.1C1130.5,1091.8,1132.1,1097.3,1131.4,1097.8z"/>
</g>
<g id="layer1_2_" transform="translate(0,-1036.3622)">
	
		<linearGradient id="path4512-3_14_" gradientUnits="userSpaceOnUse" x1="30111.3496" y1="-5766.1226" x2="30794.6934" y2="-5766.1226" gradientTransform="matrix(4.573926e-02 0 0 -4.561282e-02 -235.5597 925.2575)">
		<stop  offset="0" style="stop-color:#FCD635"/>
		<stop  offset="1" style="stop-color:#F7A928"/>
	</linearGradient>
	<path id="path4512-3_2_" class="st3" d="M1166.8,1203.1c-1.1,0.8-8.2-4.2-9.6-4.2c-1.4,0-8.6,4.9-9.7,4.1
		c-1.1-0.8,1.5-9.1,1.1-10.4c-0.4-1.3-7.3-6.6-6.9-7.9s9.2-1.4,10.3-2.2c1.1-0.8,4.1-9,5.4-9c1.4,0,4.2,8.3,5.3,9.1
		c1.1,0.8,9.8,1.1,10.2,2.4c0.4,1.3-6.6,6.5-7,7.8S1168,1202.3,1166.8,1203.1z"/>
</g>
<g id="layer1_3_" transform="translate(0,-1036.3622)">
	
		<linearGradient id="path4512-3_15_" gradientUnits="userSpaceOnUse" x1="17674.959" y1="-6168.4531" x2="18415.8301" y2="-6168.4531" gradientTransform="matrix(4.573926e-02 0 0 -4.561282e-02 -235.5597 925.2575)">
		<stop  offset="0" style="stop-color:#FCD635"/>
		<stop  offset="1" style="stop-color:#F7A928"/>
	</linearGradient>
	<path id="path4512-3_3_" class="st4" d="M600.1,1222.7c-1.2,0.9-8.9-4.6-10.4-4.6c-1.5,0-9.3,5.3-10.5,4.4
		c-1.2-0.9,1.6-9.9,1.2-11.3c-0.4-1.4-7.9-7.2-7.5-8.6c0.5-1.4,9.9-1.5,11.1-2.4s4.4-9.7,5.9-9.7c1.5,0,4.5,9,5.7,9.8
		s10.7,1.2,11.1,2.6c0.4,1.4-7.1,7.1-7.6,8.5C598.7,1212.7,601.3,1221.8,600.1,1222.7z"/>
</g>
<g id="layer1_4_" transform="translate(0,-1036.3622)">
	
		<linearGradient id="path4512-3_16_" gradientUnits="userSpaceOnUse" x1="22800.1836" y1="-4571.6626" x2="23400.3105" y2="-4571.6626" gradientTransform="matrix(4.573926e-02 0 0 -4.561282e-02 -235.5597 925.2575)">
		<stop  offset="0" style="stop-color:#FCD635"/>
		<stop  offset="1" style="stop-color:#F7A928"/>
	</linearGradient>
	<path id="path4512-3_4_" class="st5" d="M829.4,1146.8c-1,0.7-7.2-3.7-8.4-3.7s-7.5,4.3-8.5,3.6c-1-0.7,1.3-8,0.9-9.2
		c-0.4-1.1-6.4-5.8-6-7c0.4-1.1,8-1.2,9-1.9c1-0.7,3.6-7.9,4.8-7.9c1.2,0,3.7,7.3,4.6,8c1,0.7,8.6,0.9,9,2.1
		c0.4,1.1-5.8,5.7-6.2,6.9C828.2,1138.7,830.3,1146.1,829.4,1146.8z"/>
</g>
<g id="layer1_5_" transform="translate(0,-1036.3622)">
	
		<linearGradient id="path4512-3_17_" gradientUnits="userSpaceOnUse" x1="12560.3975" y1="-3387.0149" x2="13162.1377" y2="-3387.0149" gradientTransform="matrix(4.573926e-02 0 0 -4.561282e-02 -235.5597 925.2575)">
		<stop  offset="0" style="stop-color:#FCD635"/>
		<stop  offset="1" style="stop-color:#F7A928"/>
	</linearGradient>
	<path id="path4512-3_5_" class="st6" d="M361.1,1092.8c-1,0.7-7.3-3.7-8.5-3.7c-1.2,0-7.6,4.3-8.5,3.6s1.3-8,0.9-9.2
		c-0.4-1.1-6.4-5.8-6.1-7c0.4-1.1,8.1-1.2,9-1.9c1-0.7,3.6-7.9,4.8-7.9c1.2,0,3.7,7.3,4.6,8s8.7,0.9,9,2.1c0.4,1.1-5.8,5.7-6.2,6.9
		C359.9,1084.7,362,1092.1,361.1,1092.8z"/>
</g>
<g id="layer1_8_" transform="translate(0,-1036.3622)">
	
		<linearGradient id="path4512-3_18_" gradientUnits="userSpaceOnUse" x1="8407.6514" y1="-2883.9917" x2="9167.7578" y2="-2883.9917" gradientTransform="matrix(4.573926e-02 0 0 -4.561282e-02 -235.5597 925.2575)">
		<stop  offset="0" style="stop-color:#FCD635"/>
		<stop  offset="1" style="stop-color:#F7A928"/>
	</linearGradient>
	<path id="path4512-3_8_" class="st7" d="M177,1073.3c-1.2,0.9-9.2-4.7-10.7-4.7c-1.5,0-9.5,5.4-10.8,4.5s1.7-10.2,1.2-11.6
		c-0.5-1.4-8.1-7.4-7.7-8.8c0.5-1.4,10.2-1.6,11.4-2.5c1.2-0.9,4.5-10,6-10c1.5,0,4.6,9.2,5.9,10.1c1.2,0.9,10.9,1.2,11.4,2.6
		c0.5,1.4-7.3,7.2-7.8,8.7C175.5,1063.1,178.2,1072.4,177,1073.3z"/>
</g>
<g id="layer1_9_" transform="translate(0,-1036.3622)">
	
		<linearGradient id="path4512-3_19_" gradientUnits="userSpaceOnUse" x1="17139.1777" y1="-4157.5269" x2="17711.5469" y2="-4157.5269" gradientTransform="matrix(4.573926e-02 0 0 -4.561282e-02 -235.5597 925.2575)">
		<stop  offset="0" style="stop-color:#FCD635"/>
		<stop  offset="1" style="stop-color:#F7A928"/>
	</linearGradient>
	<path id="path4512-3_9_" class="st8" d="M569.4,1127.3c-0.9,0.7-6.9-3.5-8.1-3.6c-1.1,0-7.2,4.1-8.1,3.4s1.2-7.6,0.9-8.7
		s-6.1-5.6-5.8-6.6s7.7-1.2,8.6-1.8s3.4-7.5,4.5-7.5c1.1,0,3.5,6.9,4.4,7.6s8.2,0.9,8.6,2s-5.5,5.5-5.9,6.5
		C568.3,1119.6,570.4,1126.6,569.4,1127.3z"/>
</g>
<g id="layer1_6_" transform="translate(0,-1036.3622)">
	
		<linearGradient id="path4512-3_20_" gradientUnits="userSpaceOnUse" x1="20399.8301" y1="-3033.3003" x2="20847.2949" y2="-3033.3003" gradientTransform="matrix(4.573926e-02 0 0 -4.561282e-02 -235.5597 925.2575)">
		<stop  offset="0" style="stop-color:#FCD635"/>
		<stop  offset="1" style="stop-color:#F7A928"/>
	</linearGradient>
	<path id="path4512-3_6_" class="st9" d="M714,1073.3c-0.7,0.5-5.4-2.8-6.3-2.8c-0.9,0-5.6,3.2-6.3,2.7c-0.7-0.5,1-6,0.7-6.8
		c-0.3-0.9-4.8-4.3-4.5-5.2s6-0.9,6.7-1.4s2.7-5.9,3.6-5.9c0.9,0,2.7,5.4,3.5,5.9s6.4,0.7,6.7,1.6c0.3,0.9-4.3,4.3-4.6,5.1
		S714.7,1072.8,714,1073.3z"/>
</g>
<g id="layer1_11_" transform="translate(0,-1036.3622)">
	
		<linearGradient id="path4512-3_21_" gradientUnits="userSpaceOnUse" x1="15857.8516" y1="-3246.9961" x2="16305.3164" y2="-3246.9961" gradientTransform="matrix(4.573926e-02 0 0 -4.561282e-02 -235.5597 925.2575)">
		<stop  offset="0" style="stop-color:#FCD635"/>
		<stop  offset="1" style="stop-color:#F7A928"/>
	</linearGradient>
	<path id="path4512-3_11_" class="st10" d="M506.2,1083.1c-0.7,0.5-5.4-2.8-6.3-2.8c-0.9,0-5.6,3.2-6.3,2.7c-0.7-0.5,1-6,0.7-6.8
		c-0.3-0.9-4.8-4.3-4.5-5.2c0.3-0.8,6-0.9,6.7-1.4s2.7-5.9,3.6-5.9c0.9,0,2.7,5.4,3.5,5.9c0.7,0.5,6.4,0.7,6.7,1.6
		c0.3,0.9-4.3,4.3-4.6,5.1C505.3,1077.1,506.9,1082.5,506.2,1083.1z"/>
</g>
<g id="layer1_7_" transform="translate(0,-1036.3622)">
	
		<linearGradient id="path4512-3_22_" gradientUnits="userSpaceOnUse" x1="26138.9688" y1="-4571.6626" x2="26739.0957" y2="-4571.6626" gradientTransform="matrix(4.573926e-02 0 0 -4.561282e-02 -235.5597 925.2575)">
		<stop  offset="0" style="stop-color:#FCD635"/>
		<stop  offset="1" style="stop-color:#F7A928"/>
	</linearGradient>
	<path id="path4512-3_7_" class="st11" d="M982.1,1146.8c-1,0.7-7.2-3.7-8.4-3.7s-7.5,4.3-8.5,3.6c-1-0.7,1.3-8,0.9-9.2
		c-0.4-1.1-6.4-5.8-6-7c0.4-1.1,8-1.2,9-1.9c1-0.7,3.6-7.9,4.8-7.9c1.2,0,3.7,7.3,4.6,8c1,0.7,8.6,0.9,9,2.1
		c0.4,1.1-5.8,5.7-6.2,6.9C980.9,1138.7,983.1,1146.1,982.1,1146.8z"/>
</g>
<g id="layer1_10_" transform="translate(0,-1036.3622)">
	
		<linearGradient id="path4512-3_23_" gradientUnits="userSpaceOnUse" x1="9860.292" y1="-4663.145" x2="10658.8184" y2="-4663.145" gradientTransform="matrix(4.573926e-02 0 0 -4.561282e-02 -235.5597 925.2575)">
		<stop  offset="0" style="stop-color:#FCD635"/>
		<stop  offset="1" style="stop-color:#F7A928"/>
	</linearGradient>
	<path id="path4512-3_10_" class="st12" d="M244.8,1155.3c-1.3,0.9-9.6-4.9-11.2-5c-1.6,0-10,5.7-11.3,4.8
		c-1.3-0.9,1.7-10.7,1.3-12.2c-0.5-1.5-8.6-7.7-8-9.3s10.7-1.7,12-2.6s4.7-10.5,6.3-10.5c1.6,0,4.9,9.6,6.2,10.6
		c1.3,0.9,11.5,1.3,12,2.8s-7.7,7.6-8.2,9.1C243.2,1144.6,246.1,1154.3,244.8,1155.3z"/>
</g>
<g id="Layer_12" class="st13">
	<path class="st14" d="M863-170H643c-11,0-20-8.9-20-20l0,0c0-11,9-20,20-20h220c11,0,20,9,20,20l0,0C883-178.9,874-170,863-170z"/>
	<path class="st14" d="M628,74H322c-11,0-20-8.9-20-20l0,0c0-11,9-20,20-20h306c11,0,20,9,20,20l0,0C648,65.1,639,74,628,74z"/>
	<path class="st14" d="M1206-73h-188c-19.9,0-36-16.1-36-36l0,0c0-19.9,16.1-36,36-36h188c19.9,0,36,16.1,36,36l0,0
		C1242-89.1,1225.9-73,1206-73z"/>
	<path class="st14" d="M1006,10H818c-19.9,0-36-16.1-36-36l0,0c0-19.9,16.1-36,36-36h188c19.9,0,36,16.1,36,36l0,0
		C1042-6.1,1025.9,10,1006,10z"/>
	<path class="st14" d="M392-41H152c-19.9,0-36-16.1-36-36l0,0c0-19.9,16.1-36,36-36h240c19.9,0,36,16.1,36,36l0,0
		C428-57.1,411.9-41,392-41z"/>
	<path class="st14" d="M62-42L62-42c-19.9,0-36-16.1-36-36l0,0c0-19.9,16.1-36,36-36l0,0c19.9,0,36,16.1,36,36l0,0
		C98-58.1,81.9-42,62-42z"/>
</g>
<g id="Layer_10">
	<path class="st15" d="M395,732.7H191V232.2c0-49.9,40.4-90.3,90.3-90.3h24c49.5,0,89.7,40.2,89.7,89.7V732.7z"/>
	<path class="st15" d="M1172,756.6H952V251.3c0-49.9,40.4-90.3,90.3-90.3h40c49.5,0,89.7,40.2,89.7,89.7V756.6z"/>
	<path class="st15" d="M569,760.6H389V340.3c0-49.9,40.4-90.3,90.3-90.3l0,0c49.5,0,89.7,40.2,89.7,89.7V760.6z"/>
	<path class="st15" d="M1281,723h-100V373.2c0-27.7,22.5-50.2,50.2-50.2l0,0c27.5,0,49.8,22.3,49.8,49.8V723z"/>
	<path class="st15" d="M929,756.6H667V491.3c0-49.9,40.4-90.3,90.3-90.3h82c49.5,0,89.7,40.2,89.7,89.7V756.6z"/>
	<path class="st15" d="M204,721.6H0V170.3C0,120.4,40.4,80,90.3,80h24c49.5,0,89.7,40.2,89.7,89.7V721.6z"/>
	<path class="st15" d="M1282,728.6h-180v-19.3c0-49.9,40.4-90.3,90.3-90.3l0,0c49.5,0,89.7,40.2,89.7,89.7V728.6z"/>
	<g>
		<path class="st16" d="M256.1,739.4h-19.5v-339c0-3,2.4-5.5,5.5-5.5h9c2.8,0,5,2.2,5,5V739.4z"/>
		<g>
			<path class="st17" d="M214.4,482.6V514c0,3.1,1.3,5.9,3.4,7.8c1.9,1.8,4.6,3,7.4,3c6.3,0,11.4-5.1,11.4-11.4v-42.5l-18.8,9.9
				L214.4,482.6z"/>
			<path class="st18" d="M195.6,492.5v31.6c0,3.8,2,7.2,5,9.1c1.7,1.1,3.7,1.7,5.8,1.7c6.3,0,11.4-5.1,11.4-11.4v-42.7l-3.4,1.8
				l-13.5,7.1L195.6,492.5z"/>
			<path class="st19" d="M178.7,501.3v29.5c0,2.7,1,5.2,2.7,7.1c2,2.3,4.9,3.7,8.1,3.7c5.3,0,9.7-3.6,11-8.4c0.3-1,0.4-1.9,0.4-3
				v-40.6l-5.4,2.8l-14.1,7.4L178.7,501.3z"/>
			<path class="st18" d="M159.2,511.6V543c0,6,4.8,10.8,10.8,10.8c6.3,0,11.4-5.1,11.4-11.4v-42.5l-2.7,1.4L159.2,511.6z"/>
		</g>
		<g>
			<path class="st17" d="M214.4,420v31.4c0,3.1,1.3,5.9,3.4,7.8c1.9,1.8,4.6,3,7.4,3c6.3,0,11.4-5.1,11.4-11.4v-42.5l-18.8,9.9
				L214.4,420z"/>
			<path class="st18" d="M195.6,429.9v31.6c0,3.8,2,7.2,5,9.1c1.7,1.1,3.7,1.7,5.8,1.7c6.3,0,11.4-5.1,11.4-11.4v-42.7l-3.4,1.8
				l-13.5,7.1L195.6,429.9z"/>
			<path class="st19" d="M178.7,438.8v29.5c0,2.7,1,5.2,2.7,7.1c2,2.3,4.9,3.7,8.1,3.7c5.3,0,9.7-3.6,11-8.4c0.3-1,0.4-1.9,0.4-3
				v-40.6l-5.4,2.8l-14.1,7.4L178.7,438.8z"/>
			<path class="st18" d="M159.2,449v31.4c0,6,4.8,10.8,10.8,10.8c6.3,0,11.4-5.1,11.4-11.4v-42.5l-2.7,1.4L159.2,449z"/>
		</g>
		<g>
			<path class="st17" d="M214.4,553.9v31.4c0,3.1,1.3,5.9,3.4,7.8c1.9,1.8,4.6,3,7.4,3c6.3,0,11.4-5.1,11.4-11.4v-42.5l-18.8,9.9
				L214.4,553.9z"/>
			<path class="st18" d="M195.6,563.8v31.6c0,3.8,2,7.2,5,9.1c1.7,1.1,3.7,1.7,5.8,1.7c6.3,0,11.4-5.1,11.4-11.4v-42.7l-3.4,1.8
				l-13.5,7.1L195.6,563.8z"/>
			<path class="st19" d="M178.7,572.6v29.5c0,2.7,1,5.2,2.7,7.1c2,2.3,4.9,3.7,8.1,3.7c5.3,0,9.7-3.6,11-8.4c0.3-1,0.4-1.9,0.4-3
				v-40.6l-5.4,2.8l-14.1,7.4L178.7,572.6z"/>
			<path class="st18" d="M159.2,582.9v31.4c0,6,4.8,10.8,10.8,10.8c6.3,0,11.4-5.1,11.4-11.4v-42.5l-2.7,1.4L159.2,582.9z"/>
		</g>
		<g>
			<path class="st17" d="M278.3,482.6V514c0,3.1-1.3,5.9-3.4,7.8c-1.9,1.8-4.5,3-7.4,3c-6.3,0-11.4-5.1-11.4-11.4v-42.5l18.8,9.9
				L278.3,482.6z"/>
			<path class="st18" d="M297.1,492.5v31.6c0,3.8-2,7.2-5,9.1c-1.7,1.1-3.7,1.7-5.8,1.7c-6.3,0-11.4-5.1-11.4-11.4v-42.7l3.4,1.8
				l13.5,7.1L297.1,492.5z"/>
			<path class="st19" d="M314,501.3v29.5c0,2.7-1,5.2-2.7,7.1c-2,2.3-4.9,3.7-8.1,3.7c-5.3,0-9.7-3.6-11-8.4c-0.3-1-0.4-1.9-0.4-3
				v-40.6l5.4,2.8l14.1,7.4L314,501.3z"/>
			<path class="st18" d="M333.5,511.6V543c0,6-4.8,10.8-10.8,10.8c-6.3,0-11.4-5.1-11.4-11.4v-42.5l2.7,1.4L333.5,511.6z"/>
		</g>
		<g>
			<path class="st17" d="M278.3,420.7v31.4c0,3.1-1.3,5.9-3.4,7.8c-1.9,1.8-4.5,3-7.4,3c-6.3,0-11.4-5.1-11.4-11.4V409l18.8,9.9
				L278.3,420.7z"/>
			<path class="st18" d="M297.1,430.6v31.6c0,3.8-2,7.2-5,9.1c-1.7,1.1-3.7,1.7-5.8,1.7c-6.3,0-11.4-5.1-11.4-11.4v-42.7l3.4,1.8
				l13.5,7.1L297.1,430.6z"/>
			<path class="st19" d="M314,439.4V469c0,2.7-1,5.2-2.7,7.1c-2,2.3-4.9,3.7-8.1,3.7c-5.3,0-9.7-3.6-11-8.4c-0.3-1-0.4-1.9-0.4-3
				v-40.6l5.4,2.8l14.1,7.4L314,439.4z"/>
			<path class="st18" d="M333.5,449.7v31.4c0,6-4.8,10.8-10.8,10.8c-6.3,0-11.4-5.1-11.4-11.4V438l2.7,1.4L333.5,449.7z"/>
		</g>
		<g>
			<path class="st17" d="M278.3,554.6V586c0,3.1-1.3,5.9-3.4,7.8c-1.9,1.8-4.5,3-7.4,3c-6.3,0-11.4-5.1-11.4-11.4v-42.5l18.8,9.9
				L278.3,554.6z"/>
			<path class="st18" d="M297.1,564.5v31.6c0,3.8-2,7.2-5,9.1c-1.7,1.1-3.7,1.7-5.8,1.7c-6.3,0-11.4-5.1-11.4-11.4v-42.7l3.4,1.8
				l13.5,7.1L297.1,564.5z"/>
			<path class="st19" d="M314,573.3v29.5c0,2.7-1,5.2-2.7,7.1c-2,2.3-4.9,3.7-8.1,3.7c-5.3,0-9.7-3.6-11-8.4c-0.3-1-0.4-1.9-0.4-3
				v-40.6l5.4,2.8l14.1,7.4L314,573.3z"/>
			<path class="st18" d="M333.5,583.6V615c0,6-4.8,10.8-10.8,10.8c-6.3,0-11.4-5.1-11.4-11.4v-42.5l2.7,1.4L333.5,583.6z"/>
		</g>
	</g>
</g>
<g id="Layer_7">
	<g>
		<path class="st16" d="M936,706h-29V209.1c0-8.4,6.8-15.1,15.1-15.1l0,0c7.7,0,13.9,6.2,13.9,13.9V706L936,706z"/>
		<g>
			<path class="st17" d="M874,324.2v46.7c0,4.6,1.9,8.7,5,11.6c2.9,2.7,6.8,4.4,11.1,4.4c9.4,0,16.9-7.6,16.9-16.9v-63.2l-28,14.7
				L874,324.2z"/>
			<path class="st18" d="M846,338.9v47c0,5.7,3,10.7,7.4,13.5c2.5,1.6,5.5,2.5,8.6,2.5c9.4,0,16.9-7.6,16.9-16.9v-63.5l-5,2.6
				l-20,10.5L846,338.9z"/>
			<path class="st19" d="M821,352v43.9c0,4.1,1.5,7.8,4,10.6c2.9,3.4,7.3,5.5,12.1,5.5c7.8,0,14.4-5.3,16.4-12.5
				c0.4-1.4,0.6-2.9,0.6-4.4v-60.4l-8,4.2l-21,11L821,352z"/>
			<path class="st18" d="M792,367.3v46.6c0,8.9,7.2,16.1,16.1,16.1c9.4,0,16.9-7.6,16.9-16.9V350l-4,2.1L792,367.3z"/>
		</g>
		<g>
			<path class="st17" d="M874,231.2v46.7c0,4.6,1.9,8.7,5,11.6c2.9,2.7,6.8,4.4,11.1,4.4c9.4,0,16.9-7.6,16.9-16.9v-63.2l-28,14.7
				L874,231.2z"/>
			<path class="st18" d="M846,245.9v47c0,5.7,3,10.7,7.4,13.5c2.5,1.6,5.5,2.5,8.6,2.5c9.4,0,16.9-7.6,16.9-16.9v-63.5l-5,2.6
				l-20,10.5L846,245.9z"/>
			<path class="st19" d="M821,259.1V303c0,4.1,1.5,7.8,4,10.6c2.9,3.3,7.3,5.5,12.1,5.5c7.8,0,14.4-5.3,16.4-12.5
				c0.4-1.4,0.6-2.9,0.6-4.4v-60.4l-8,4.2l-21,11L821,259.1z"/>
			<path class="st18" d="M792,274.3v46.6c0,8.9,7.2,16.1,16.1,16.1c9.4,0,16.9-7.6,16.9-16.9V257l-4,2.1L792,274.3z"/>
		</g>
		<g>
			<path class="st17" d="M874,430.2v46.7c0,4.6,1.9,8.7,5,11.6c2.9,2.7,6.8,4.4,11.1,4.4c9.4,0,16.9-7.6,16.9-16.9v-63.2l-28,14.7
				L874,430.2z"/>
			<path class="st18" d="M846,444.9v47c0,5.7,3,10.7,7.4,13.5c2.5,1.6,5.5,2.5,8.6,2.5c9.4,0,16.9-7.6,16.9-16.9v-63.5l-5,2.6
				l-20,10.5L846,444.9z"/>
			<path class="st19" d="M821,458v43.9c0,4.1,1.5,7.8,4,10.6c2.9,3.4,7.3,5.5,12.1,5.5c7.8,0,14.4-5.3,16.4-12.5
				c0.4-1.4,0.6-2.9,0.6-4.4v-60.4l-8,4.2l-21,11L821,458z"/>
			<path class="st18" d="M792,473.3v46.6c0,8.9,7.2,16.1,16.1,16.1c9.4,0,16.9-7.6,16.9-16.9V456l-4,2.1L792,473.3z"/>
		</g>
		<g>
			<path class="st17" d="M969,324.2v46.7c0,4.6-1.9,8.7-5,11.6c-2.9,2.7-6.8,4.4-11.1,4.4c-9.4,0-16.9-7.6-16.9-16.9v-63.2l28,14.7
				L969,324.2z"/>
			<path class="st18" d="M997,338.9v47c0,5.7-3,10.7-7.4,13.5c-2.5,1.6-5.5,2.5-8.6,2.5c-9.4,0-16.9-7.6-16.9-16.9v-63.5l5,2.6
				l20,10.5L997,338.9z"/>
			<path class="st19" d="M1022,352.1V396c0,4.1-1.5,7.8-4,10.6c-2.9,3.4-7.3,5.5-12.1,5.5c-7.8,0-14.4-5.3-16.4-12.5
				c-0.4-1.4-0.6-2.9-0.6-4.4v-60.4l8,4.2l21,11L1022,352.1z"/>
			<path class="st18" d="M1051,367.3v46.6c0,8.9-7.2,16.1-16.1,16.1c-9.4,0-16.9-7.6-16.9-16.9V350l4,2.1L1051,367.3z"/>
		</g>
		<g>
			<path class="st17" d="M969,232.2v46.7c0,4.6-1.9,8.7-5,11.6c-2.9,2.7-6.8,4.4-11.1,4.4c-9.4,0-16.9-7.6-16.9-16.9v-63.2l28,14.7
				L969,232.2z"/>
			<path class="st18" d="M997,246.9v47c0,5.7-3,10.7-7.4,13.5c-2.5,1.6-5.5,2.5-8.6,2.5c-9.4,0-16.9-7.6-16.9-16.9v-63.5l5,2.6
				l20,10.5L997,246.9z"/>
			<path class="st19" d="M1022,260.1V304c0,4.1-1.5,7.8-4,10.6c-2.9,3.4-7.3,5.5-12.1,5.5c-7.8,0-14.4-5.3-16.4-12.5
				c-0.4-1.4-0.6-2.9-0.6-4.4v-60.4l8,4.2l21,11L1022,260.1z"/>
			<path class="st18" d="M1051,275.3v46.6c0,8.9-7.2,16.1-16.1,16.1c-9.4,0-16.9-7.6-16.9-16.9V258l4,2.1L1051,275.3z"/>
		</g>
		<g>
			<path class="st17" d="M969,431.2v46.7c0,4.6-1.9,8.7-5,11.6c-2.9,2.7-6.8,4.4-11.1,4.4c-9.4,0-16.9-7.6-16.9-16.9v-63.2l28,14.7
				L969,431.2z"/>
			<path class="st18" d="M997,445.9v47c0,5.7-3,10.7-7.4,13.5c-2.5,1.6-5.5,2.5-8.6,2.5c-9.4,0-16.9-7.6-16.9-16.9v-63.5l5,2.6
				l20,10.5L997,445.9z"/>
			<path class="st19" d="M1022,459.1V503c0,4.1-1.5,7.8-4,10.6c-2.9,3.4-7.3,5.5-12.1,5.5c-7.8,0-14.4-5.3-16.4-12.5
				c-0.4-1.4-0.6-2.9-0.6-4.4v-60.4l8,4.2l21,11L1022,459.1z"/>
			<path class="st18" d="M1051,474.3v46.6c0,8.9-7.2,16.1-16.1,16.1c-9.4,0-16.9-7.6-16.9-16.9V457l4,2.1L1051,474.3z"/>
		</g>
	</g>
	<g>
		<path class="st20" d="M157,739h-29V106.1c0-8.4,6.8-15.1,15.1-15.1l0,0c7.7,0,13.9,6.2,13.9,13.9V739z"/>
		<g>
			<path class="st21" d="M95,255.8V315c0,5.8,1.9,11,5,14.7c2.9,3.5,6.8,5.6,11.1,5.6c9.4,0,16.9-9.6,16.9-21.4v-80l-28,18.6
				L95,255.8z"/>
			<path class="st22" d="M67,274.4v59.5c0,7.2,3,13.5,7.4,17.1c2.5,2,5.5,3.2,8.6,3.2c9.4,0,16.9-9.6,16.9-21.4v-80.4l-5,3.3
				l-20,13.3L67,274.4z"/>
			<path class="st23" d="M42,291v55.5c0,5.1,1.5,9.8,4,13.4c2.9,4.2,7.3,6.9,12.1,6.9c7.8,0,14.4-6.7,16.4-15.8
				c0.4-1.8,0.6-3.7,0.6-5.6V269l-8,5.3l-21,13.9L42,291z"/>
			<path class="st21" d="M13,310.3v59c0,11.2,7.2,20.3,16.1,20.3c9.4,0,16.9-9.6,16.9-21.4v-79.9l-4,2.7L13,310.3z"/>
		</g>
		<g>
			<path class="st21" d="M95,138.1v59.2c0,5.8,1.9,11,5,14.7c2.9,3.5,6.8,5.6,11.1,5.6c9.4,0,16.9-9.6,16.9-21.4v-80l-28,18.6
				L95,138.1z"/>
			<path class="st22" d="M67,156.7v59.5c0,7.2,3,13.5,7.4,17.1c2.5,2,5.5,3.2,8.6,3.2c9.4,0,16.9-9.6,16.9-21.4v-80.3l-5,3.3
				L75,151.4L67,156.7z"/>
			<path class="st23" d="M42,173.3v55.5c0,5.1,1.5,9.8,4,13.4c2.9,4.2,7.3,6.9,12.1,6.9c7.8,0,14.4-6.7,16.4-15.8
				c0.4-1.8,0.6-3.7,0.6-5.6v-76.4l-8,5.3l-21,13.9L42,173.3z"/>
			<path class="st21" d="M13,192.6v59c0,11.3,7.2,20.4,16,20.4c9.4,0,16.9-9.6,16.9-21.4v-79.9l-4,2.7L13,192.6z"/>
		</g>
		<g>
			<path class="st21" d="M95,390v59.1c0,5.8,1.9,11,5,14.7c2.9,3.5,6.8,5.6,11.1,5.6c9.4,0,16.9-9.6,16.9-21.4v-80l-28,18.6L95,390z
				"/>
			<path class="st22" d="M67,408.6v59.5c0,7.2,3,13.5,7.4,17.1c2.5,2,5.5,3.2,8.6,3.2c9.4,0,16.9-9.6,16.9-21.4v-80.4l-5,3.3
				l-20,13.3L67,408.6z"/>
			<path class="st23" d="M42,425.2v55.5c0,5.1,1.5,9.8,4,13.4c2.9,4.2,7.3,6.9,12.1,6.9c7.8,0,14.4-6.7,16.4-15.8
				c0.4-1.8,0.6-3.7,0.6-5.6v-76.4l-8,5.3l-21,14L42,425.2z"/>
			<path class="st21" d="M13,444.5v59c0,11.2,7.2,20.3,16.1,20.3c9.4,0,16.9-9.6,16.9-21.4v-79.9l-4,2.7L13,444.5z"/>
		</g>
		<g>
			<path class="st21" d="M190,255.8V315c0,5.8-1.9,11-5,14.7c-2.9,3.5-6.8,5.6-11.1,5.6c-9.4,0-16.9-9.6-16.9-21.4v-80l28,18.6
				L190,255.8z"/>
			<path class="st22" d="M218,274.4v59.5c0,7.2-3,13.5-7.4,17.1c-2.5,2-5.5,3.2-8.6,3.2c-9.4,0-16.9-9.6-16.9-21.4v-80.4l5,3.3
				l20,13.3L218,274.4z"/>
			<path class="st23" d="M243,291v55.5c0,5.1-1.5,9.8-4,13.4c-2.9,4.2-7.3,6.9-12.1,6.9c-7.8,0-14.4-6.7-16.4-15.9
				c-0.4-1.8-0.6-3.7-0.6-5.6v-76.4l8,5.3l21,14L243,291z"/>
			<path class="st21" d="M272,310.3v59c0,11.2-7.2,20.3-16.1,20.3c-9.4,0-16.9-9.6-16.9-21.4v-79.9l4,2.7L272,310.3z"/>
		</g>
		<g>
			<path class="st21" d="M190,139.3v59.2c0,5.8-1.9,11-5,14.7c-2.9,3.5-6.8,5.6-11.1,5.6c-9.4,0-16.9-9.6-16.9-21.4v-80l28,18.6
				L190,139.3z"/>
			<path class="st22" d="M218,158v59.5c0,7.2-3,13.5-7.4,17.1c-2.5,2-5.5,3.2-8.6,3.2c-9.4,0-16.9-9.6-16.9-21.4V136l5,3.3l20,13.3
				L218,158z"/>
			<path class="st23" d="M243,174.6v55.5c0,5.1-1.5,9.8-4,13.4c-2.9,4.2-7.3,6.9-12.1,6.9c-7.8,0-14.4-6.7-16.4-15.9
				c-0.4-1.8-0.6-3.7-0.6-5.6v-76.2l8,5.3l21,14L243,174.6z"/>
			<path class="st21" d="M272,193.9v59c0,11.2-7.2,20.3-16.1,20.3c-9.4,0-16.9-9.6-16.9-21.4v-79.9l4,2.7L272,193.9z"/>
		</g>
		<g>
			<path class="st21" d="M190,391.2v59.2c0,5.8-1.9,11-5,14.7c-2.9,3.5-6.8,5.6-11.1,5.6c-9.4,0-16.9-9.6-16.9-21.4v-80l28,18.6
				L190,391.2z"/>
			<path class="st22" d="M218,409.8v59.5c0,7.2-3,13.5-7.4,17.1c-2.5,2-5.5,3.2-8.6,3.2c-9.4,0-16.9-9.6-16.9-21.4v-80.4l5,3.3
				l20,13.3L218,409.8z"/>
			<path class="st23" d="M243,426.5V482c0,5.1-1.5,9.8-4,13.4c-2.9,4.2-7.3,6.9-12.1,6.9c-7.8,0-14.4-6.7-16.4-15.9
				c-0.4-1.8-0.6-3.7-0.6-5.6v-76.4l8,5.3l21,14L243,426.5z"/>
			<path class="st21" d="M272,445.8v59c0,11.2-7.2,20.3-16.1,20.3c-9.4,0-16.9-9.6-16.9-21.4v-79.9l4,2.7L272,445.8z"/>
		</g>
	</g>
	<g>
		<path class="st20" d="M1185.7,712h-17.9V289.3c0-5.1,4.2-9.3,9.3-9.3l0,0c4.7,0,8.5,3.8,8.5,8.5L1185.7,712L1185.7,712z"/>
		<g>
			<path class="st21" d="M1147.5,389.9v39.4c0,3.9,1.2,7.4,3.1,9.8c1.8,2.3,4.2,3.7,6.8,3.7c5.8,0,10.4-6.4,10.4-14.3v-53.3
				l-17.2,12.4L1147.5,389.9z"/>
			<path class="st22" d="M1130.3,402.3V442c0,4.8,1.8,9,4.6,11.4c1.5,1.3,3.4,2.1,5.3,2.1c5.8,0,10.4-6.4,10.4-14.3v-53.6l-3.1,2.2
				l-12.3,8.9L1130.3,402.3z"/>
			<path class="st23" d="M1114.9,413.4v37c0,3.4,0.9,6.6,2.5,8.9c1.8,2.8,4.5,4.6,7.4,4.6c4.8,0,8.9-4.5,10.1-10.6
				c0.2-1.2,0.4-2.4,0.4-3.7v-50.9l-4.9,3.5l-12.9,9.3L1114.9,413.4z"/>
			<path class="st21" d="M1097,426.2v39.4c0,7.5,4.4,13.5,9.9,13.5c5.8,0,10.4-6.4,10.4-14.3v-53.3l-2.5,1.8L1097,426.2z"/>
		</g>
		<g>
			<path class="st21" d="M1147.5,311.4v39.4c0,3.9,1.2,7.4,3.1,9.8c1.8,2.3,4.2,3.7,6.8,3.7c5.8,0,10.4-6.4,10.4-14.3v-53.3
				l-17.2,12.4L1147.5,311.4z"/>
			<path class="st22" d="M1130.3,323.8v39.7c0,4.8,1.8,9,4.6,11.4c1.5,1.3,3.4,2.1,5.3,2.1c5.8,0,10.4-6.4,10.4-14.3v-53.6l-3.1,2.2
				l-12.3,8.9L1130.3,323.8z"/>
			<path class="st23" d="M1114.9,334.9v37c0,3.4,0.9,6.6,2.5,8.9c1.8,2.8,4.5,4.6,7.4,4.6c4.8,0,8.9-4.5,10.1-10.6
				c0.2-1.2,0.4-2.4,0.4-3.7v-50.9l-4.9,3.5l-12.9,9.3L1114.9,334.9z"/>
			<path class="st21" d="M1097,347.7v39.4c0,7.5,4.4,13.5,9.9,13.5c5.8,0,10.4-6.4,10.4-14.3V333l-2.5,1.8L1097,347.7z"/>
		</g>
		<g>
			<path class="st21" d="M1147.5,479.3v39.4c0,3.9,1.2,7.4,3.1,9.8c1.8,2.3,4.2,3.7,6.8,3.7c5.8,0,10.4-6.4,10.4-14.3v-53.3
				l-17.2,12.4L1147.5,479.3z"/>
			<path class="st22" d="M1130.3,491.7v39.7c0,4.8,1.8,9,4.6,11.4c1.5,1.3,3.4,2.1,5.3,2.1c5.8,0,10.4-6.4,10.4-14.3V477l-3.1,2.2
				l-12.3,8.9L1130.3,491.7z"/>
			<path class="st23" d="M1114.9,502.8v37c0,3.4,0.9,6.6,2.5,8.9c1.8,2.8,4.5,4.6,7.4,4.6c4.8,0,8.9-4.5,10.1-10.6
				c0.2-1.2,0.4-2.4,0.4-3.7v-50.9l-4.9,3.5l-12.9,9.3L1114.9,502.8z"/>
			<path class="st21" d="M1097,515.6V555c0,7.5,4.4,13.5,9.9,13.5c5.8,0,10.4-6.4,10.4-14.3v-53.3l-2.5,1.8L1097,515.6z"/>
		</g>
		<g>
			<path class="st21" d="M1206,389.9v39.4c0,3.9-1.2,7.4-3.1,9.8c-1.8,2.3-4.2,3.7-6.8,3.7c-5.8,0-10.4-6.4-10.4-14.3v-53.3
				l17.2,12.4L1206,389.9z"/>
			<path class="st22" d="M1223.3,402.3V442c0,4.8-1.8,9-4.6,11.4c-1.5,1.3-3.4,2.1-5.3,2.1c-5.8,0-10.4-6.4-10.4-14.3v-53.6l3.1,2.2
				l12.3,8.9L1223.3,402.3z"/>
			<path class="st23" d="M1238.6,413.4v37c0,3.4-0.9,6.6-2.5,8.9c-1.8,2.8-4.5,4.6-7.4,4.6c-4.8,0-8.9-4.5-10.1-10.6
				c-0.2-1.2-0.4-2.4-0.4-3.7v-50.9l4.9,3.5l12.9,9.3L1238.6,413.4z"/>
			<path class="st21" d="M1256.5,426.2v39.4c0,7.5-4.4,13.5-9.9,13.5c-5.8,0-10.4-6.4-10.4-14.3v-53.3l2.5,1.8L1256.5,426.2z"/>
		</g>
		<g>
			<path class="st21" d="M1206,312.2v39.4c0,3.9-1.2,7.4-3.1,9.8c-1.8,2.3-4.2,3.7-6.8,3.7c-5.8,0-10.4-6.4-10.4-14.3v-53.3
				l17.2,12.4L1206,312.2z"/>
			<path class="st22" d="M1223.3,324.6v39.7c0,4.8-1.8,9-4.6,11.4c-1.5,1.3-3.4,2.1-5.3,2.1c-5.8,0-10.4-6.4-10.4-14.3V310l3.1,2.2
				l12.3,8.9L1223.3,324.6z"/>
			<path class="st23" d="M1238.6,335.7v37c0,3.4-0.9,6.6-2.5,8.9c-1.8,2.8-4.5,4.6-7.4,4.6c-4.8,0-8.9-4.5-10.1-10.6
				c-0.2-1.2-0.4-2.4-0.4-3.7V321l4.9,3.5l12.9,9.3L1238.6,335.7z"/>
			<path class="st21" d="M1256.5,348.6V388c0,7.5-4.4,13.5-9.9,13.5c-5.8,0-10.4-6.4-10.4-14.3V334l2.5,1.8L1256.5,348.6z"/>
		</g>
		<g>
			<path class="st21" d="M1206,480.1v39.4c0,3.9-1.2,7.4-3.1,9.8c-1.8,2.3-4.2,3.7-6.8,3.7c-5.8,0-10.4-6.4-10.4-14.3v-53.3
				l17.2,12.4L1206,480.1z"/>
			<path class="st22" d="M1223.3,492.6v39.7c0,4.8-1.8,9-4.6,11.4c-1.5,1.3-3.4,2.1-5.3,2.1c-5.8,0-10.4-6.4-10.4-14.3v-53.6
				l3.1,2.2l12.3,8.9L1223.3,492.6z"/>
			<path class="st23" d="M1238.6,503.6v37c0,3.4-0.9,6.6-2.5,8.9c-1.8,2.8-4.5,4.6-7.4,4.6c-4.8,0-8.9-4.5-10.1-10.6
				c-0.2-1.2-0.4-2.4-0.4-3.7V489l4.9,3.5l12.9,9.3L1238.6,503.6z"/>
			<path class="st21" d="M1256.5,516.5v39.4c0,7.5-4.4,13.5-9.9,13.5c-5.8,0-10.4-6.4-10.4-14.3v-53.3l2.5,1.8L1256.5,516.5z"/>
		</g>
	</g>
</g>
<g id="Réteg_2_1_">
	<g id="Réteg_14">
		
			<linearGradient id="SVGID_1_" gradientUnits="userSpaceOnUse" x1="75.9545" y1="1393.3463" x2="48.1478" y2="2037.7352" gradientTransform="matrix(1 0 0 1 0 -1340)">
			<stop  offset="0" style="stop-color:#332924"/>
			<stop  offset="1" style="stop-color:#332924"/>
		</linearGradient>
		<path class="st24" d="M163.3,0l-15.7,32.2c-15.5,32.2-47.3,96.7-62.7,161.1c-15.7,64.5-15.6,128.9-9.1,193.4
			C82,451,95.1,515.5,88.7,580.1S57.6,708.9,44.9,741l-12.5,32.2H-5.4L-5.5,741c-0.1-32.2-0.2-96.7-0.3-161S-6,451.2-6.1,386.7
			s-0.2-128.9-0.4-193.2c-0.1-64.3-0.2-128.8-0.3-161V0.3L163.3,0z"/>
	</g>
</g>
<g id="Layer_11">
	<g>
		<g>
			<rect x="770" y="367.1" class="st25" width="40" height="354.7"/>
			<path class="st26" d="M854,245.7v391.1c0,4.9-4,8.8-8.8,8.8l0,0c-4.5,0-8.2-3.7-8.2-8.2v-57c0-9.3-7.5-16.8-16.8-16.8l0,0
				c-9.5,0-17.2,7.7-17.2,17.2v44.9c0,6-4.9,10.9-10.9,10.9H792c-6.6,0-12-5.4-12-12V531c0-5.1-4.2-9.3-9.3-9.3h-0.2
				c-4.7,0-8.5,3.8-8.5,8.5V592c0,8.1-6.6,14.7-14.7,14.7h-0.2c-7.8,0-14.2-6.3-14.2-14.2v-348c0-33.1,26.8-59.9,59.9-59.9h0.1
				C826.7,184.7,854,212,854,245.7z"/>
		</g>
		<path class="st26" d="M798,719.7L798,719.7c-2.2,0-4-1.8-4-4v-52c0-2.2,1.8-4,4-4l0,0c2.2,0,4,1.8,4,4v52
			C802,717.9,800.2,719.7,798,719.7z"/>
		<path class="st26" d="M780,685.7L780,685.7c-1.4,0-2.5-1.1-2.5-2.5v-35c0-1.4,1.1-2.5,2.5-2.5l0,0c1.4,0,2.5,1.1,2.5,2.5v35
			C782.5,684.6,781.4,685.7,780,685.7z"/>
		<path class="st27" d="M765.5,412.7L765.5,412.7c-4.7,0-8.5-3.8-8.5-8.5v-180c0-4.7,3.8-8.5,8.5-8.5l0,0c4.7,0,8.5,3.8,8.5,8.5v180
			C774,408.9,770.2,412.7,765.5,412.7z"/>
		<path class="st27" d="M828.5,294.7L828.5,294.7c-4.7,0-8.5-3.8-8.5-8.5l0,0c0-4.7,3.8-8.5,8.5-8.5l0,0c4.7,0,8.5,3.8,8.5,8.5l0,0
			C837,290.9,833.2,294.7,828.5,294.7z"/>
		<path class="st27" d="M779.5,496.7L779.5,496.7c-12.4,0-22.5-10.1-22.5-22.5l0,0c0-12.4,10.1-22.5,22.5-22.5l0,0
			c12.4,0,22.5,10.1,22.5,22.5l0,0C802,486.6,791.9,496.7,779.5,496.7z"/>
		<path class="st27" d="M845,636.7L845,636.7c-2.8,0-5-2.2-5-5v-90c0-2.8,2.2-5,5-5l0,0c2.8,0,5,2.2,5,5v90
			C850,634.4,847.8,636.7,845,636.7z"/>
	</g>
	<g>
		<g>
			<rect x="841.7" y="663.7" class="st28" width="25.3" height="47.3"/>
			<path class="st29" d="M911.7,648.5v38.4c0,5.6-4.5,10.1-10.1,10.1l0,0c-5.5,0-9.9-4.4-9.9-9.9v-11c0-2.8-2.3-5.1-5.1-5.1l0,0
				c-2.7,0-4.9,2.2-4.9,4.9v9.3c0,5.1-4.1,9.2-9.2,9.2h-6.8c-4.1,0-7.4-3.3-7.4-7.4l0,0c0-1.5-1.2-2.6-2.6-2.6h-8.4
				c-1.3,0-2.3,1-2.3,2.3l0,0c0,5.4-4.3,9.7-9.7,9.7h-1.5c-5.2,0-9.5-4.2-9.5-9.5v-11.7c0-2.3-1.9-4.2-4.2-4.2H820
				c-2.1,0-3.8,1.7-3.8,3.8v3.7c0,5.1-4.1,9.3-9.3,9.3l0,0c-4.8,0-8.8-3.9-8.8-8.8v-30.8c0-30.5,24.7-55.2,55.2-55.2h2.7
				C886.9,593,911.7,617.9,911.7,648.5z"/>
			<path class="st30" d="M911.7,643.2v38.4c0,5.6-4.5,10.1-10.1,10.1l0,0c-5.5,0-9.9-4.4-9.9-9.9v-11c0-2.8-2.3-5.1-5.1-5.1l0,0
				c-2.7,0-4.9,2.2-4.9,4.9v9.3c0,5.1-4.1,9.2-9.2,9.2h-6.8c-4.1,0-7.4-3.3-7.4-7.4l0,0c0-1.5-1.2-2.6-2.6-2.6h-8.4
				c-1.3,0-2.3,1-2.3,2.3l0,0c0,5.4-4.3,9.7-9.7,9.7h-1.5c-5.2,0-9.5-4.2-9.5-9.5v-11.7c0-2.3-1.9-4.2-4.2-4.2H820
				c-2.1,0-3.8,1.7-3.8,3.8v3.7c0,5.1-4.1,9.3-9.3,9.3l0,0c-4.8,0-8.8-3.9-8.8-8.8v-30.8c0-30.5,24.7-55.2,55.2-55.2h2.7
				C886.9,587.7,911.7,612.5,911.7,643.2z"/>
		</g>
		<path class="st28" d="M867.7,683L867.7,683c-1.8,0-3.3-1.5-3.3-3.3v-20c0-1.8,1.5-3.3,3.3-3.3l0,0c1.8,0,3.3,1.5,3.3,3.3v20
			C871,681.5,869.6,683,867.7,683z"/>
		<path class="st28" d="M808,675L808,675c-0.9,0-1.7-0.8-1.7-1.7v-36.7c0-0.9,0.8-1.7,1.7-1.7l0,0c0.9,0,1.7,0.8,1.7,1.7v36.7
			C809.7,674.3,809,675,808,675z"/>
		<path class="st28" d="M900.4,681.7L900.4,681.7c-1.8,0-3.3-1.5-3.3-3.3v-20c0-1.8,1.5-3.3,3.3-3.3l0,0c1.8,0,3.3,1.5,3.3,3.3v20
			C903.7,680.2,902.2,681.7,900.4,681.7z"/>
		<path class="st28" d="M869.7,641L869.7,641c-1.8,0.1-3.4-1.3-3.5-3.2l0,0c-0.1-1.8,1.3-3.4,3.2-3.5l0,0c1.8-0.1,3.4,1.3,3.5,3.2
			l0,0C873,639.3,871.6,640.9,869.7,641z"/>
		<path class="st28" d="M843.8,626.8L843.8,626.8c-4.2,0.2-7.8-3-8-7.3l0,0c-0.2-4.2,3-7.8,7.3-8l0,0c4.2-0.2,7.8,3,8,7.3l0,0
			C851.3,622.9,848,626.5,843.8,626.8z"/>
	</g>
	<g>
		<g>
			<rect x="57.8" y="656.1" class="st28" width="29" height="54.2"/>
			<path class="st29" d="M138,638.7v44c0,6.4-5.2,11.6-11.6,11.6l0,0c-6.3,0-11.3-5.1-11.3-11.3v-12.6c0-3.2-2.6-5.9-5.9-5.9l0,0
				c-3.1,0-5.6,2.5-5.6,5.6v10.6c0,5.8-4.7,10.5-10.6,10.5h-7.7c-4.7,0-8.4-3.8-8.4-8.5l0,0c0-1.7-1.3-3-3-3h-9.6
				c-1.5,0-2.6,1.2-2.6,2.6l0,0c0,6.1-5,11.1-11.1,11.1h-1.7c-6,0-10.8-4.8-10.8-10.8v-13.4c0-2.6-2.1-4.8-4.8-4.8h-0.1
				c-2.4,0-4.3,1.9-4.3,4.3v4.2c0,5.8-4.7,10.6-10.6,10.6l0,0c-5.5,0-10-4.5-10-10v-35.2c0-34.9,28.3-63.2,63.2-63.2h3.1
				C109.5,575.1,138,603.6,138,638.7z"/>
			<path class="st30" d="M138,632.6v44c0,6.4-5.2,11.6-11.6,11.6l0,0c-6.3,0-11.3-5.1-11.3-11.3v-12.6c0-3.2-2.6-5.9-5.9-5.9l0,0
				c-3.1,0-5.6,2.5-5.6,5.6v10.6c0,5.8-4.7,10.5-10.6,10.5h-7.7c-4.7,0-8.4-3.8-8.4-8.5l0,0c0-1.7-1.3-3-3-3h-9.6
				c-1.5,0-2.6,1.2-2.6,2.6l0,0c0,6.1-5,11.1-11.1,11.1h-1.7c-6,0-10.8-4.8-10.8-10.8v-13.4c0-2.6-2.1-4.8-4.8-4.8h-0.1
				c-2.4,0-4.3,1.9-4.3,4.3v4.2c0,5.8-4.7,10.6-10.6,10.6l0,0c-5.5,0-10-4.5-10-10v-35.2c0-34.9,28.3-63.2,63.2-63.2h3.1
				C109.5,569,138,597.5,138,632.6z"/>
		</g>
		<path class="st28" d="M87.6,678.2L87.6,678.2c-2.1,0-3.8-1.7-3.8-3.8v-22.9c0-2.1,1.7-3.8,3.8-3.8l0,0c2.1,0,3.8,1.7,3.8,3.8v22.9
			C91.4,676.5,89.7,678.2,87.6,678.2z"/>
		<path class="st28" d="M19.2,669.1L19.2,669.1c-1,0-1.9-0.8-1.9-1.9v-42c0-1,0.9-1.9,1.9-1.9l0,0c1,0,1.9,0.8,1.9,1.9v42
			C21.1,668.2,20.3,669.1,19.2,669.1z"/>
		<path class="st28" d="M125,676.7L125,676.7c-2.1,0-3.8-1.7-3.8-3.8V650c0-2.1,1.7-3.8,3.8-3.8l0,0c2.1,0,3.8,1.7,3.8,3.8v22.9
			C128.8,675,127.1,676.7,125,676.7z"/>
		<path class="st28" d="M89.9,630.1L89.9,630.1c-2.1,0.1-3.9-1.5-4-3.6l0,0c-0.1-2.1,1.5-3.9,3.6-4l0,0c2.1-0.1,3.9,1.5,4,3.6l0,0
			C93.6,628.2,92,630,89.9,630.1z"/>
		<path class="st28" d="M60.2,613.8L60.2,613.8c-4.8,0.2-9-3.5-9.2-8.3l0,0c-0.2-4.8,3.5-9,8.3-9.2l0,0c4.8-0.2,9,3.5,9.2,8.3l0,0
			C68.7,609.4,65,613.5,60.2,613.8z"/>
	</g>
</g>
<g id="Layer_9">
	<g class="st31">
		<g>
			<g>
				<g>
					<g>
						<g>
							<path class="st16" d="M1010.5,677.5v19.9c0,2,1.7,3.7,3.7,3.7h25.4c12.1,0,21.9,9.8,21.9,21.9v2.4c0,2-1.7,3.7-3.7,3.7H862.9
								c-2,0-3.7-1.6-3.7-3.6c0-6.7,2.7-12.8,7.1-17.3c4.4-4.4,10.5-7.1,17.2-7.1h23.3c2,0,3.7-1.7,3.7-3.7v-95.2
								c0-5.6-4.5-10.1-10.1-10.1h-30.6c-16.7,0-30.2-13.5-30.2-30.2v-76.1c0-2,1.7-3.7,3.7-3.7h23.6c2,0,3.7,1.6,3.7,3.7v58
								c0,11.8,9.5,21.3,21.3,21.3l0,0c10.3,0,18.7-8.4,18.7-18.7v-46.6c0-2,1.7-3.7,3.7-3.7h92.6c2,0,3.7,1.6,3.7,3.7v117.5
								c0,8.8,7.2,15.8,15.9,15.7l10.5-0.1c7.4-0.1,13.4-9.9,13.3-22l-0.9-81l0,0l23.7-0.3l0,0l1.2,103.4c0.2,18.2-8.7,33-20,33.1
								l-32.7,0.4C1015.4,666.5,1010.5,671.5,1010.5,677.5z"/>
							<path class="st16" d="M924.5,696.1L924.5,696.1c-4.4,0-8-3.6-8-8V660c0-4.4,3.6-8,8-8l0,0c4.4,0,8,3.6,8,8v28.1
								C932.5,692.5,928.9,696.1,924.5,696.1z"/>
							<path class="st16" d="M990.5,682.1L990.5,682.1c2.8,0,5-2.2,5-5v-80c0-2.8-2.2-5-5-5l0,0c-2.8,0-5,2.2-5,5v80
								C985.5,679.9,987.7,682.1,990.5,682.1z"/>
							<path class="st16" d="M950.5,603.1L950.5,603.1c2.2,0,4-1.8,4-4v-72c0-2.2-1.8-4-4-4l0,0c-2.2,0-4,1.8-4,4v72
								C946.5,601.3,948.3,603.1,950.5,603.1z"/>
							<path class="st16" d="M1010.5,713L1010.5,713c0,1.6,0.8,2.9,1.9,2.9l26.1,0.2c1.1,0,1.9-1.3,1.9-2.9l0,0
								c0-1.6-0.8-2.9-1.9-2.9l-26.2-0.2C1011.4,710.1,1010.5,711.4,1010.5,713z"/>
							<path class="st16" d="M847.5,544.1L847.5,544.1c1.6,0,2.9-0.9,2.9-1.9l0.1-26.1c0-1.1-1.3-1.9-2.9-1.9l0,0
								c-1.6,0-2.9,0.9-2.9,1.9l-0.1,26.1C844.5,543.2,845.8,544.1,847.5,544.1z"/>
						</g>
						<path class="st16" d="M1181.5,463.2v107.1c0,8.7-7.1,15.7-15.8,15.7l0,0c-10.6,0-19.3-8.6-19.3-19.3v-53.4
							c0-8.9-7.2-16.1-16.1-16.1l0,0c-9.9,0-17.9,8-17.9,17.9v24.1c0,9.8-8,17.8-17.8,17.8h-32.2l0,0c0-6.6-5.4-12-12-12h-1.5
							c-5.3,0-9.5,4.3-9.5,9.5v23.8c0,14.2-11.5,25.8-25.8,25.8l0,0c-14.5,0-26.3-11.8-26.3-26.3v-57.7c0-12.6-10.2-22.9-22.8-22.9
							l0,0c-12.2,0-22.2,9.9-22.2,22.1v69.9c0,13.1-10.6,23.8-23.8,23.8l0,0c-14,0-25.3-11.3-25.3-25.3v-4.3
							c0-21.8-17.7-39.5-39.5-39.5h-15.3c-9,0-16.3,7.3-16.3,16.3l0,0c0,12.6-10.2,22.8-22.8,22.8l0,0c-14,0-25.3-11.3-25.3-25.3
							v-94.6c0-105.5,85.5-191,191-191h25C1096,272.2,1181.5,357.8,1181.5,463.2z"/>
						<path class="st16" d="M1152.5,535.1v44.6c0,6.3-5.1,11.4-11.4,11.4l0,0c-6.4,0-11.6-5.2-11.6-11.6v-8.3
							c0-7.3-5.9-13.1-13.1-13.1l0,0c-7.1,0-12.9,5.8-12.9,12.9v34c0,6.7-5.4,12.1-12.1,12.1l0,0c-6.6,0-11.9-5.3-11.9-11.9v-35.5
							c0-6.4-5.2-11.6-11.6-11.6l0,0c-6.3,0-11.4,5.1-11.4,11.4v23.8c0,6-4.9,10.9-10.9,10.9l0,0c-6.1,0-11.1-5-11.1-11.1v-57.9
							c0-32.6,26.4-59,59-59l0,0C1126.1,476.1,1152.5,502.5,1152.5,535.1z"/>
					</g>
					<path class="st16" d="M1047.5,570.1L1047.5,570.1c-2.8,0-5-2.2-5-5v-20c0-2.8,2.2-5,5-5l0,0c2.8,0,5,2.2,5,5v20
						C1052.5,567.9,1050.3,570.1,1047.5,570.1z"/>
					<path class="st16" d="M1096.5,559.1L1096.5,559.1c-2.8,0-5-2.2-5-5v-40c0-2.8,2.2-5,5-5l0,0c2.8,0,5,2.2,5,5v40
						C1101.5,556.9,1099.3,559.1,1096.5,559.1z"/>
					<path class="st16" d="M1130.5,551.1L1130.5,551.1c-5.5,0-10-4.5-10-10l0,0c0-5.5,4.5-10,10-10l0,0c5.5,0,10,4.5,10,10l0,0
						C1140.5,546.6,1136,551.1,1130.5,551.1z"/>
					<path class="st16" d="M1065.8,524.8h-2c-2.8,0-5-2.2-5-5v-2c0-2.8,2.2-5,5-5h2c2.8,0,5,2.2,5,5v2
						C1070.8,522.6,1068.5,524.8,1065.8,524.8z"/>
					<path class="st16" d="M1078.5,506.6L1078.5,506.6c-1.4,0-2.5-1.1-2.5-2.5l0,0c0-1.4,1.1-2.5,2.5-2.5l0,0c1.4,0,2.5,1.1,2.5,2.5
						l0,0C1081,505.5,1079.9,506.6,1078.5,506.6z"/>
				</g>
				<path class="st16" d="M892.5,415.5v143c0,3.7-3,6.6-6.6,6.6l0,0c-4.1,0-7.4-3.3-7.4-7.4v-35.9c0-5.4-4.3-9.7-9.7-9.7l0,0
					c-5.1,0-9.3,4.2-9.3,9.3v44.3c0,5.2-4.2,9.4-9.4,9.4l0,0c-5.3,0-9.6-4.3-9.6-9.6v-49.7c0-2-1.7-3.7-3.7-3.7l0,0
					c-2.4,0-4.3,1.9-4.3,4.3v94c0,4.2-3.4,7.7-7.7,7.7l0,0c-4.6,0-8.3-3.7-8.3-8.3V415.4c0-32.9,39.3-50.9,63.5-28.5
					c0.4,0.4,0.8,0.7,1.1,1.1C888.2,395,892.5,404.7,892.5,415.5z"/>
			</g>
			<path class="st16" d="M824.5,609.1L824.5,609.1c-1.7,0-3-1.3-3-3v-39c0-1.7,1.3-3,3-3l0,0c1.7,0,3,1.3,3,3v39
				C827.5,607.8,826.2,609.1,824.5,609.1z"/>
			<path class="st16" d="M868.5,464.1L868.5,464.1c-3.9,0-7-3.1-7-7v-41c0-3.9,3.1-7,7-7l0,0c3.9,0,7,3.1,7,7v41
				C875.5,461,872.4,464.1,868.5,464.1z"/>
			<path class="st16" d="M833.5,504.1L833.5,504.1c-2.8,0-5-2.2-5-5v-45c0-2.8,2.2-5,5-5l0,0c2.8,0,5,2.2,5,5v45
				C838.5,501.9,836.3,504.1,833.5,504.1z"/>
			<path class="st16" d="M885.5,515.1L885.5,515.1c-2.8,0-5-2.2-5-5l0,0c0-2.8,2.2-5,5-5l0,0c2.8,0,5,2.2,5,5l0,0
				C890.5,512.9,888.3,515.1,885.5,515.1z"/>
			<path class="st16" d="M835.5,422.1L835.5,422.1c-2.2,0-4-1.8-4-4l0,0c0-2.2,1.8-4,4-4l0,0c2.2,0,4,1.8,4,4l0,0
				C839.5,420.3,837.7,422.1,835.5,422.1z"/>
		</g>
		<path class="st16" d="M1087,455.1L1087,455.1c8,0,14.5-6.5,14.5-14.5v-51c0-8-6.5-14.5-14.5-14.5l0,0c-8,0-14.5,6.5-14.5,14.5v51
			C1072.5,448.6,1079,455.1,1087,455.1z"/>
		<path class="st16" d="M992,481.1h4c8,0,14.5-6.5,14.5-14.5v-66c0-8-6.5-14.5-14.5-14.5h-4c-8,0-14.5,6.5-14.5,14.5v66
			C977.5,474.6,984,481.1,992,481.1z"/>
		<path class="st16" d="M918,557.1L918,557.1c8,0,14.5-6.5,14.5-14.5l0,0c0-8-6.5-14.5-14.5-14.5l0,0c-8,0-14.5,6.5-14.5,14.5l0,0
			C903.5,550.6,910,557.1,918,557.1z"/>
		<path class="st16" d="M1151.4,484.1h0.3c9.3,0,16.9-7.6,16.9-16.9V467c0-9.3-7.6-16.9-16.9-16.9h-0.3c-9.3,0-16.9,7.6-16.9,16.9
			v0.3C1134.5,476.5,1142.1,484.1,1151.4,484.1z"/>
		<path class="st16" d="M929,379.1L929,379.1c6.9,0,12.5-5.6,12.5-12.5v-55c0-6.9-5.6-12.5-12.5-12.5l0,0c-6.9,0-12.5,5.6-12.5,12.5
			v55C916.5,373.5,922.1,379.1,929,379.1z"/>
		<path class="st16" d="M797.5,572.1L797.5,572.1c5.5,0,10-4.5,10-10v-40c0-5.5-4.5-10-10-10l0,0c-5.5,0-10,4.5-10,10v40
			C787.5,567.6,792,572.1,797.5,572.1z"/>
		<path class="st16" d="M1000.5,591.1L1000.5,591.1c2.8,0,5-2.2,5-5v-70c0-2.8-2.2-5-5-5l0,0c-2.8,0-5,2.2-5,5v70
			C995.5,588.9,997.7,591.1,1000.5,591.1z"/>
	</g>
	<g class="st32">
		<g>
			<g>
				<g>
					<g>
						<g>
							<path class="st16" d="M612.5,671.5v19.9c0,2,1.7,3.7,3.7,3.7h25.4c12.1,0,21.9,9.8,21.9,21.9v2.4c0,2-1.7,3.7-3.7,3.7H464.9
								c-2,0-3.7-1.6-3.7-3.6c0-6.7,2.7-12.8,7.1-17.3c4.4-4.4,10.5-7.1,17.2-7.1h23.3c2,0,3.7-1.7,3.7-3.7v-95.2
								c0-5.6-4.5-10.1-10.1-10.1h-30.6c-16.7,0-30.2-13.5-30.2-30.2v-76.1c0-2,1.6-3.7,3.7-3.7h23.6c2,0,3.7,1.6,3.7,3.7v58
								c0,11.8,9.5,21.3,21.3,21.3l0,0c10.3,0,18.7-8.4,18.7-18.7v-46.6c0-2,1.7-3.7,3.7-3.7h92.6c2,0,3.7,1.6,3.7,3.7v117.5
								c0,8.8,7.2,15.8,15.9,15.7l10.5-0.1c7.5-0.1,13.4-9.9,13.3-22l-0.9-81l0,0l23.7-0.3l0,0l1.2,103.4c0.2,18.2-8.7,33-20,33.1
								l-32.7,0.4C617.4,660.5,612.5,665.5,612.5,671.5z"/>
							<path class="st16" d="M526.5,690.1L526.5,690.1c-4.4,0-8-3.6-8-8V654c0-4.4,3.6-8,8-8l0,0c4.4,0,8,3.6,8,8v28.1
								C534.5,686.5,530.9,690.1,526.5,690.1z"/>
							<path class="st16" d="M592.5,676.1L592.5,676.1c2.8,0,5-2.2,5-5v-80c0-2.8-2.2-5-5-5l0,0c-2.8,0-5,2.2-5,5v80
								C587.5,673.9,589.7,676.1,592.5,676.1z"/>
							<path class="st16" d="M552.5,597.1L552.5,597.1c2.2,0,4-1.8,4-4v-72c0-2.2-1.8-4-4-4l0,0c-2.2,0-4,1.8-4,4v72
								C548.5,595.3,550.3,597.1,552.5,597.1z"/>
							<path class="st16" d="M612.5,707L612.5,707c0,1.6,0.8,2.9,1.9,2.9l26.2,0.2c1.1,0,1.9-1.3,1.9-2.9l0,0c0-1.6-0.8-2.9-1.9-2.9
								l-26.2-0.2C613.4,704.1,612.5,705.4,612.5,707z"/>
							<path class="st16" d="M449.5,538.1L449.5,538.1c1.6,0,2.9-0.9,2.9-1.9l0.1-26.1c0-1.1-1.3-1.9-2.9-1.9l0,0
								c-1.6,0-2.9,0.9-2.9,1.9l-0.1,26.1C446.5,537.2,447.9,538.1,449.5,538.1z"/>
						</g>
						<path class="st16" d="M783.5,457.2v107.1c0,8.7-7,15.7-15.8,15.7l0,0c-10.6,0-19.3-8.6-19.3-19.3v-53.4
							c0-8.9-7.2-16.1-16.1-16.1l0,0c-9.9,0-17.9,8-17.9,17.9v24.1c0,9.8-8,17.8-17.8,17.8h-32.2l0,0c0-6.6-5.4-12-12-12H651
							c-5.3,0-9.5,4.3-9.5,9.5v23.8c0,14.2-11.5,25.8-25.8,25.8l0,0c-14.5,0-26.3-11.8-26.3-26.3v-57.7c0-12.6-10.2-22.9-22.8-22.9
							l0,0c-12.2,0-22.2,9.9-22.2,22.1v69.9c0,13.1-10.6,23.8-23.8,23.8l0,0c-14,0-25.3-11.3-25.3-25.3v-4.3
							c0-21.8-17.7-39.5-39.5-39.5h-15.3c-9,0-16.3,7.3-16.3,16.3l0,0c0,12.6-10.2,22.8-22.8,22.8l0,0c-14,0-25.3-11.3-25.3-25.3
							v-94.6c0-105.5,85.5-191,191-191h25C698,266.2,783.5,351.8,783.5,457.2z"/>
						<path class="st16" d="M754.5,529.1v44.6c0,6.3-5.1,11.4-11.4,11.4l0,0c-6.4,0-11.6-5.2-11.6-11.6v-8.3
							c0-7.3-5.9-13.1-13.1-13.1l0,0c-7.1,0-12.9,5.8-12.9,12.9v34c0,6.7-5.4,12.1-12.1,12.1l0,0c-6.6,0-11.9-5.3-11.9-11.9v-35.5
							c0-6.4-5.2-11.6-11.6-11.6l0,0c-6.3,0-11.4,5.1-11.4,11.4v23.8c0,6-4.9,10.9-10.9,10.9l0,0c-6.1,0-11.1-5-11.1-11.1v-57.9
							c0-32.6,26.4-59,59-59l0,0C728.1,470.1,754.5,496.5,754.5,529.1z"/>
					</g>
					<path class="st16" d="M649.5,564.1L649.5,564.1c-2.8,0-5-2.2-5-5v-20c0-2.8,2.2-5,5-5l0,0c2.8,0,5,2.2,5,5v20
						C654.5,561.9,652.3,564.1,649.5,564.1z"/>
					<path class="st16" d="M698.5,553.1L698.5,553.1c-2.8,0-5-2.2-5-5v-40c0-2.8,2.2-5,5-5l0,0c2.8,0,5,2.2,5,5v40
						C703.5,550.9,701.3,553.1,698.5,553.1z"/>
					<path class="st16" d="M732.5,545.1L732.5,545.1c-5.5,0-10-4.5-10-10l0,0c0-5.5,4.5-10,10-10l0,0c5.5,0,10,4.5,10,10l0,0
						C742.5,540.6,738,545.1,732.5,545.1z"/>
					<path class="st16" d="M667.8,518.8h-2c-2.8,0-5-2.2-5-5v-2c0-2.8,2.2-5,5-5h2c2.8,0,5,2.2,5,5v2
						C672.8,516.6,670.5,518.8,667.8,518.8z"/>
					<path class="st16" d="M680.5,500.6L680.5,500.6c-1.4,0-2.5-1.1-2.5-2.5l0,0c0-1.4,1.1-2.5,2.5-2.5l0,0c1.4,0,2.5,1.1,2.5,2.5
						l0,0C683,499.5,681.9,500.6,680.5,500.6z"/>
				</g>
				<path class="st16" d="M494.5,409.5v143c0,3.7-3,6.6-6.6,6.6l0,0c-4.1,0-7.4-3.3-7.4-7.4v-35.9c0-5.4-4.4-9.7-9.7-9.7l0,0
					c-5.1,0-9.3,4.2-9.3,9.3v44.3c0,5.2-4.2,9.4-9.4,9.4l0,0c-5.3,0-9.6-4.3-9.6-9.6v-49.7c0-2-1.6-3.7-3.7-3.7l0,0
					c-2.4,0-4.3,1.9-4.3,4.3v94c0,4.2-3.4,7.7-7.7,7.7l0,0c-4.6,0-8.3-3.7-8.3-8.3V409.4c0-32.9,39.3-50.9,63.5-28.5
					c0.4,0.4,0.8,0.7,1.1,1.1C490.1,389,494.5,398.7,494.5,409.5z"/>
			</g>
			<path class="st16" d="M426.5,603.1L426.5,603.1c-1.7,0-3-1.3-3-3v-39c0-1.7,1.3-3,3-3l0,0c1.7,0,3,1.3,3,3v39
				C429.5,601.8,428.2,603.1,426.5,603.1z"/>
			<path class="st16" d="M470.5,458.1L470.5,458.1c-3.9,0-7-3.1-7-7v-41c0-3.9,3.1-7,7-7l0,0c3.9,0,7,3.1,7,7v41
				C477.5,455,474.4,458.1,470.5,458.1z"/>
			<path class="st16" d="M435.5,498.1L435.5,498.1c-2.8,0-5-2.2-5-5v-45c0-2.8,2.2-5,5-5l0,0c2.8,0,5,2.2,5,5v45
				C440.5,495.9,438.3,498.1,435.5,498.1z"/>
			<path class="st16" d="M487.5,509.1L487.5,509.1c-2.8,0-5-2.2-5-5l0,0c0-2.8,2.2-5,5-5l0,0c2.8,0,5,2.2,5,5l0,0
				C492.5,506.9,490.3,509.1,487.5,509.1z"/>
			<path class="st16" d="M437.5,416.1L437.5,416.1c-2.2,0-4-1.8-4-4l0,0c0-2.2,1.8-4,4-4l0,0c2.2,0,4,1.8,4,4l0,0
				C441.5,414.3,439.7,416.1,437.5,416.1z"/>
		</g>
		<path class="st16" d="M689,449.1L689,449.1c8,0,14.5-6.5,14.5-14.5v-51c0-8-6.5-14.5-14.5-14.5l0,0c-8,0-14.5,6.5-14.5,14.5v51
			C674.5,442.6,681,449.1,689,449.1z"/>
		<path class="st16" d="M594,475.1h4c8,0,14.5-6.5,14.5-14.5v-66c0-8-6.5-14.5-14.5-14.5h-4c-8,0-14.5,6.5-14.5,14.5v66
			C579.5,468.6,586,475.1,594,475.1z"/>
		<path class="st16" d="M520,551.1L520,551.1c8,0,14.5-6.5,14.5-14.5l0,0c0-8-6.5-14.5-14.5-14.5l0,0c-8,0-14.5,6.5-14.5,14.5l0,0
			C505.5,544.6,512,551.1,520,551.1z"/>
		<path class="st16" d="M753.4,478.1h0.3c9.3,0,16.9-7.6,16.9-16.9V461c0-9.3-7.6-16.9-16.9-16.9h-0.3c-9.3,0-16.9,7.6-16.9,16.9
			v0.3C736.5,470.5,744.1,478.1,753.4,478.1z"/>
		<path class="st16" d="M531,373.1L531,373.1c6.9,0,12.5-5.6,12.5-12.5v-55c0-6.9-5.6-12.5-12.5-12.5l0,0c-6.9,0-12.5,5.6-12.5,12.5
			v55C518.5,367.5,524.1,373.1,531,373.1z"/>
		<path class="st16" d="M399.5,566.1L399.5,566.1c5.5,0,10-4.5,10-10v-40c0-5.5-4.5-10-10-10l0,0c-5.5,0-10,4.5-10,10v40
			C389.5,561.6,394,566.1,399.5,566.1z"/>
		<path class="st16" d="M602.5,585.1L602.5,585.1c2.8,0,5-2.2,5-5v-70c0-2.8-2.2-5-5-5l0,0c-2.8,0-5,2.2-5,5v70
			C597.5,582.9,599.7,585.1,602.5,585.1z"/>
	</g>
</g>
<g id="Layer_6">
	<g>
		<g>
			<rect x="374" y="327.7" class="st16" width="40" height="384.4"/>
			<path class="st17" d="M458,196.1V620c0,5.3-4,9.6-8.8,9.6l0,0c-4.5,0-8.2-4-8.2-8.8V559c0-10.1-7.5-18.3-16.8-18.3l0,0
				c-9.5,0-17.2,8.3-17.2,18.6V608c0,6.5-4.9,11.8-10.9,11.8H396c-6.6,0-12-5.8-12-13V505.3c0-5.6-4.2-10.1-9.3-10.1h-0.2
				c-4.7,0-8.5,4.1-8.5,9.2v67c0,8.8-6.6,15.9-14.7,15.9h-0.2c-7.8,0-14.2-6.9-14.2-15.3V194.9c0-35.8,26.8-64.9,59.9-64.9h0.1
				C430.7,130,458,159.6,458,196.1z"/>
		</g>
		<path class="st18" d="M402,709.8L402,709.8c-2.2,0-4-1.8-4-4v-57c0-2.2,1.8-4,4-4l0,0c2.2,0,4,1.8,4,4v57
			C406,708,404.2,709.8,402,709.8z"/>
		<path class="st18" d="M384,673L384,673c-1.4,0-2.5-1.1-2.5-2.5v-38.3c0-1.4,1.1-2.5,2.5-2.5l0,0c1.4,0,2.5,1.1,2.5,2.5v38.3
			C386.5,671.8,385.4,673,384,673z"/>
		<path class="st19" d="M369.5,377.1L369.5,377.1c-4.7,0-8.5-3.8-8.5-8.5V172.1c0-4.7,3.8-8.5,8.5-8.5l0,0c4.7,0,8.5,3.8,8.5,8.5
			v196.5C378,373.3,374.2,377.1,369.5,377.1z"/>
		<path class="st19" d="M432.5,249.2L432.5,249.2c-4.7,0-8.5-3.8-8.5-8.5v-1.4c0-4.7,3.8-8.5,8.5-8.5l0,0c4.7,0,8.5,3.8,8.5,8.5v1.4
			C441,245.4,437.2,249.2,432.5,249.2z"/>
		<path class="st19" d="M383.5,468.1L383.5,468.1c-12.4,0-22.5-10.1-22.5-22.5v-3.8c0-12.4,10.1-22.5,22.5-22.5l0,0
			c12.4,0,22.5,10.1,22.5,22.5v3.8C406,458.1,395.9,468.1,383.5,468.1z"/>
		<path class="st19" d="M449,619.9L449,619.9c-2.8,0-5-2.2-5-5v-98.4c0-2.8,2.2-5,5-5l0,0c2.8,0,5,2.2,5,5v98.4
			C454,617.6,451.8,619.9,449,619.9z"/>
	</g>
	<g>
		<g>
			<rect x="1189" y="307.7" class="st25" width="40" height="413.5"/>
			<path class="st26" d="M1273,166.1V622c0,5.7-4,10.3-8.8,10.3l0,0c-4.5,0-8.2-4.3-8.2-9.5v-66.4c0-10.8-7.5-19.6-16.8-19.6l0,0
				c-9.5,0-17.2,9-17.2,20v52.4c0,7-4.9,12.7-10.9,12.7h-0.1c-6.6,0-12-6.3-12-14V498.7c0-6-4.2-10.9-9.3-10.9h-0.2
				c-4.7,0-8.5,4.4-8.5,9.9v72.1c0,9.4-6.6,17.1-14.7,17.1h-0.2c-7.8,0-14.2-7.4-14.2-16.5V164.8c0-38.6,26.8-69.8,59.9-69.8h0.1
				C1245.7,95,1273,126.8,1273,166.1z"/>
		</g>
		<path class="st26" d="M1217,718.7L1217,718.7c-2.2,0-4-1.8-4-4v-62c0-2.2,1.8-4,4-4l0,0c2.2,0,4,1.8,4,4v61.9
			C1221,716.9,1219.2,718.7,1217,718.7z"/>
		<path class="st26" d="M1199,679L1199,679c-1.4,0-2.5-1.1-2.5-2.5v-41.6c0-1.4,1.1-2.5,2.5-2.5l0,0c1.4,0,2.5,1.1,2.5,2.5v41.6
			C1201.5,677.9,1200.4,679,1199,679z"/>
		<path class="st27" d="M1184.5,360.8L1184.5,360.8c-4.7,0-8.5-3.8-8.5-8.5V139.6c0-4.7,3.8-8.5,8.5-8.5l0,0c4.7,0,8.5,3.8,8.5,8.5
			v212.6C1193,357,1189.2,360.8,1184.5,360.8z"/>
		<path class="st27" d="M1247.5,223.2L1247.5,223.2c-4.7,0-8.5-3.8-8.5-8.5v-2.8c0-4.7,3.8-8.5,8.5-8.5l0,0c4.7,0,8.5,3.8,8.5,8.5
			v2.8C1256,219.4,1252.2,223.2,1247.5,223.2z"/>
		<path class="st27" d="M1198.5,458.7L1198.5,458.7c-12.4,0-22.5-10.1-22.5-22.5v-7.5c0-12.4,10.1-22.5,22.5-22.5l0,0
			c12.4,0,22.5,10.1,22.5,22.5v7.5C1221,448.6,1210.9,458.7,1198.5,458.7z"/>
		<path class="st27" d="M1264,621.9L1264,621.9c-2.8,0-5-2.2-5-5V510.3c0-2.8,2.2-5,5-5l0,0c2.8,0,5,2.2,5,5v106.6
			C1269,619.7,1266.8,621.9,1264,621.9z"/>
	</g>
</g>
<g id="Layer_5">
	<g>
		<path class="st23" d="M803.1,742l-34.3,7.2c-10.5,2.2-20.9-4.6-23.1-15.1l0,0c-2.2-10.5,4.6-20.9,15.1-23.1l34.3-7.2
			c10.5-2.2,20.9,4.6,23.1,15.1l0,0C820.4,729.5,813.7,739.8,803.1,742z"/>
		<path class="st23" d="M750,737L750,737c-13.3,0-24-10.8-24-24v-12c0-13.3,10.8-24,24-24l0,0c13.3,0,24,10.8,24,24v12
			C774,726.3,763.3,737,750,737z"/>
		<path class="st23" d="M707.2,720l-6.3-9c-6-8.6-3.8-20.5,4.8-26.4l0,0c8.6-6,20.5-3.8,26.4,4.8l6.3,9c6,8.6,3.8,20.5-4.8,26.4l0,0
			C725,730.7,713.2,728.6,707.2,720z"/>
		<path class="st22" d="M743,743L743,743c-13.3,0-24-10.8-24-24v-12c0-13.3,10.8-24,24-24l0,0c13.3,0,24,10.8,24,24v12
			C767,732.3,756.3,743,743,743z"/>
		<path class="st22" d="M773,742h-11c-10.5,0-19-8.5-19-19l0,0c0-10.5,8.5-19,19-19h11c10.5,0,19,8.5,19,19l0,0
			C792,733.5,783.5,742,773,742z"/>
		<path class="st22" d="M708.7,746.6L681.2,725c-8.5-6.7-9.9-18.9-3.3-27.4l0,0c6.7-8.5,18.9-9.9,27.4-3.3l27.5,21.6
			c8.5,6.7,9.9,18.9,3.3,27.4l0,0C729.5,751.8,717.2,753.3,708.7,746.6z"/>
	</g>
	<g>
		<path class="st23" d="M872.1,748l-34.3,7.2c-10.5,2.2-20.9-4.6-23.1-15.1l0,0c-2.2-10.5,4.6-20.9,15.1-23.1l34.3-7.2
			c10.5-2.2,20.9,4.6,23.1,15.1l0,0C889.4,735.5,882.7,745.8,872.1,748z"/>
		<path class="st23" d="M819,743L819,743c-13.3,0-24-10.8-24-24v-12c0-13.3,10.8-24,24-24l0,0c13.3,0,24,10.8,24,24v12
			C843,732.3,832.3,743,819,743z"/>
		<path class="st23" d="M776.2,726l-6.3-9c-6-8.6-3.8-20.5,4.8-26.4l0,0c8.6-6,20.5-3.8,26.4,4.8l6.3,9c6,8.6,3.8,20.5-4.8,26.4l0,0
			C794,736.7,782.2,734.6,776.2,726z"/>
		<path class="st22" d="M812,749L812,749c-13.3,0-24-10.8-24-24v-12c0-13.3,10.8-24,24-24l0,0c13.3,0,24,10.8,24,24v12
			C836,738.3,825.3,749,812,749z"/>
		<path class="st22" d="M842,748h-11c-10.5,0-19-8.5-19-19l0,0c0-10.5,8.5-19,19-19h11c10.5,0,19,8.5,19,19l0,0
			C861,739.5,852.5,748,842,748z"/>
		<path class="st22" d="M777.7,752.6L750.2,731c-8.5-6.7-9.9-18.9-3.3-27.4l0,0c6.7-8.5,18.9-9.9,27.4-3.3l27.5,21.6
			c8.5,6.7,9.9,18.9,3.3,27.4l0,0C798.5,757.8,786.2,759.3,777.7,752.6z"/>
	</g>
	<g>
		<path class="st23" d="M615.4,738.2l-34.3,7.2c-10.5,2.2-20.9-4.6-23.1-15.1l0,0c-2.2-10.5,4.6-20.9,15.1-23.1l34.3-7.2
			c10.5-2.2,20.9,4.6,23.1,15.1l0,0C632.7,725.7,626,736,615.4,738.2z"/>
		<path class="st23" d="M562.3,733.2L562.3,733.2c-13.3,0-24-10.8-24-24v-12c0-13.3,10.8-24,24-24l0,0c13.3,0,24,10.8,24,24v12
			C586.3,722.4,575.6,733.2,562.3,733.2z"/>
		<path class="st23" d="M519.5,716.1l-6.3-9c-6-8.6-3.8-20.5,4.8-26.4l0,0c8.6-6,20.5-3.8,26.4,4.8l6.3,9c6,8.6,3.8,20.5-4.8,26.4
			l0,0C537.3,726.9,525.5,724.8,519.5,716.1z"/>
		<path class="st22" d="M555.3,739.2L555.3,739.2c-13.3,0-24-10.8-24-24v-12c0-13.3,10.8-24,24-24l0,0c13.3,0,24,10.8,24,24v12
			C579.3,728.4,568.6,739.2,555.3,739.2z"/>
		<path class="st22" d="M585.3,738.2h-11c-10.5,0-19-8.5-19-19l0,0c0-10.5,8.5-19,19-19h11c10.5,0,19,8.5,19,19l0,0
			C604.3,729.7,595.8,738.2,585.3,738.2z"/>
		<path class="st22" d="M521,742.8l-27.5-21.6c-8.5-6.7-9.9-18.9-3.3-27.4l0,0c6.6-8.5,18.9-9.9,27.4-3.3l27.5,21.6
			c8.5,6.7,9.9,18.9,3.3,27.4l0,0C541.8,748,529.5,749.5,521,742.8z"/>
	</g>
	<g>
		<path class="st23" d="M511.1,731l-34.3,7.2c-10.5,2.2-20.9-4.6-23.1-15.1l0,0c-2.2-10.5,4.6-20.9,15.1-23.1l34.3-7.2
			c10.5-2.2,20.9,4.6,23.1,15.1l0,0C528.4,718.5,521.7,728.8,511.1,731z"/>
		<path class="st23" d="M458,726L458,726c-13.3,0-24-10.8-24-24v-12c0-13.3,10.8-24,24-24l0,0c13.3,0,24,10.8,24,24v12
			C482,715.3,471.3,726,458,726z"/>
		<path class="st23" d="M415.2,709l-6.3-9c-6-8.6-3.8-20.5,4.8-26.4l0,0c8.6-6,20.5-3.8,26.4,4.8l6.3,9c6,8.6,3.8,20.5-4.8,26.4l0,0
			C433,719.7,421.2,717.6,415.2,709z"/>
		<path class="st22" d="M451,732L451,732c-13.3,0-24-10.8-24-24v-12c0-13.3,10.8-24,24-24l0,0c13.3,0,24,10.8,24,24v12
			C475,721.3,464.3,732,451,732z"/>
		<path class="st22" d="M481,731h-11c-10.5,0-19-8.5-19-19l0,0c0-10.5,8.5-19,19-19h11c10.5,0,19,8.5,19,19l0,0
			C500,722.5,491.5,731,481,731z"/>
		<path class="st22" d="M416.7,735.6L389.2,714c-8.5-6.7-9.9-18.9-3.3-27.4l0,0c6.6-8.5,18.9-9.9,27.4-3.3l27.5,21.6
			c8.5,6.7,9.9,18.9,3.3,27.4l0,0C437.5,740.8,425.2,742.3,416.7,735.6z"/>
	</g>
	<g>
		<path class="st19" d="M1203.1,739l-34.3,7.2c-10.5,2.2-20.9-4.6-23.1-15.1l0,0c-2.2-10.5,4.6-20.9,15.1-23.1l34.3-7.2
			c10.5-2.2,20.9,4.6,23.1,15.1l0,0C1220.4,726.5,1213.7,736.8,1203.1,739z"/>
		<path class="st19" d="M1150,734L1150,734c-13.3,0-24-10.8-24-24v-12c0-13.3,10.8-24,24-24l0,0c13.3,0,24,10.8,24,24v12
			C1174,723.3,1163.3,734,1150,734z"/>
		<path class="st19" d="M1107.2,717l-6.3-9c-6-8.6-3.8-20.5,4.8-26.4l0,0c8.6-6,20.5-3.8,26.4,4.8l6.3,9c6,8.6,3.8,20.5-4.8,26.4
			l0,0C1125,727.7,1113.2,725.6,1107.2,717z"/>
		<path class="st18" d="M1143,740L1143,740c-13.3,0-24-10.8-24-24v-12c0-13.3,10.8-24,24-24l0,0c13.3,0,24,10.8,24,24v12
			C1167,729.3,1156.3,740,1143,740z"/>
		<path class="st18" d="M1173,739h-11c-10.5,0-19-8.5-19-19l0,0c0-10.5,8.5-19,19-19h11c10.5,0,19,8.5,19,19l0,0
			C1192,730.5,1183.5,739,1173,739z"/>
		<path class="st18" d="M1108.7,743.6l-27.5-21.6c-8.5-6.7-9.9-18.9-3.3-27.4l0,0c6.7-8.5,18.9-9.9,27.4-3.3l27.5,21.6
			c8.5,6.7,9.9,18.9,3.3,27.4l0,0C1129.4,748.8,1117.2,750.3,1108.7,743.6z"/>
	</g>
	<g>
		<path class="st19" d="M1308.6,747.5l-34.3,7.2c-10.5,2.2-20.9-4.6-23.1-15.1l0,0c-2.2-10.5,4.6-20.9,15.1-23.1l34.3-7.2
			c10.5-2.2,20.9,4.6,23.1,15.1l0,0C1325.9,735,1319.2,745.3,1308.6,747.5z"/>
		<path class="st19" d="M1255.5,742.5L1255.5,742.5c-13.3,0-24-10.8-24-24v-12c0-13.3,10.8-24,24-24l0,0c13.3,0,24,10.8,24,24v12
			C1279.5,731.8,1268.8,742.5,1255.5,742.5z"/>
		<path class="st19" d="M1212.7,725.5l-6.3-9c-6-8.6-3.8-20.5,4.8-26.4l0,0c8.6-6,20.5-3.8,26.4,4.8l6.3,9c6,8.6,3.8,20.5-4.8,26.4
			l0,0C1230.5,736.2,1218.7,734.1,1212.7,725.5z"/>
		<path class="st18" d="M1248.5,748.5L1248.5,748.5c-13.3,0-24-10.8-24-24v-12c0-13.3,10.8-24,24-24l0,0c13.3,0,24,10.8,24,24v12
			C1272.5,737.8,1261.8,748.5,1248.5,748.5z"/>
		<path class="st18" d="M1278.5,747.5h-11c-10.5,0-19-8.5-19-19l0,0c0-10.5,8.5-19,19-19h11c10.5,0,19,8.5,19,19l0,0
			C1297.5,739,1289,747.5,1278.5,747.5z"/>
		<path class="st18" d="M1214.2,752.1l-27.5-21.6c-8.5-6.7-9.9-18.9-3.3-27.4l0,0c6.7-8.5,18.9-9.9,27.4-3.3l27.5,21.6
			c8.5,6.7,9.9,18.9,3.3,27.4l0,0C1234.9,757.3,1222.7,758.8,1214.2,752.1z"/>
	</g>
	<g>
		<path class="st19" d="M1048.1,747l-34.3,7.2c-10.5,2.2-20.9-4.6-23.1-15.1l0,0c-2.2-10.5,4.6-20.9,15.1-23.1l34.3-7.2
			c10.5-2.2,20.9,4.6,23.1,15.1l0,0C1065.4,734.5,1058.7,744.8,1048.1,747z"/>
		<path class="st19" d="M995,742L995,742c-13.3,0-24-10.8-24-24v-12c0-13.3,10.8-24,24-24l0,0c13.3,0,24,10.8,24,24v12
			C1019,731.3,1008.3,742,995,742z"/>
		<path class="st19" d="M952.2,725l-6.3-9c-6-8.6-3.8-20.5,4.8-26.4l0,0c8.6-6,20.5-3.8,26.4,4.8l6.3,9c6,8.6,3.8,20.5-4.8,26.4l0,0
			C970,735.7,958.2,733.6,952.2,725z"/>
		<path class="st18" d="M988,748L988,748c-13.3,0-24-10.8-24-24v-12c0-13.3,10.8-24,24-24l0,0c13.3,0,24,10.8,24,24v12
			C1012,737.3,1001.3,748,988,748z"/>
		<path class="st18" d="M1018,747h-11c-10.5,0-19-8.5-19-19l0,0c0-10.5,8.5-19,19-19h11c10.5,0,19,8.5,19,19l0,0
			C1037,738.5,1028.5,747,1018,747z"/>
		<path class="st18" d="M953.7,751.6L926.2,730c-8.5-6.7-9.9-18.9-3.3-27.4l0,0c6.7-8.5,18.9-9.9,27.4-3.3l27.5,21.6
			c8.5,6.7,9.9,18.9,3.3,27.4l0,0C974.5,756.8,962.2,758.3,953.7,751.6z"/>
	</g>
	<g>
		<g>
			<rect x="480.4" y="679.2" class="st28" width="28.1" height="52.6"/>
			<path class="st29" d="M558.2,662.3V705c0,6.2-5,11.3-11.3,11.3l0,0c-6.1,0-11-4.9-11-11V693c0-3.1-2.5-5.7-5.7-5.7l0,0
				c-3,0-5.4,2.4-5.4,5.4V703c0,5.7-4.6,10.2-10.2,10.2h-7.5c-4.5,0-8.2-3.7-8.2-8.2l0,0c0-1.6-1.3-2.9-2.9-2.9h-9.4
				c-1.4,0-2.5,1.1-2.5,2.5l0,0c0,6-4.8,10.8-10.8,10.8h-1.7c-5.8,0-10.5-4.7-10.5-10.5v-13c0-2.6-2.1-4.6-4.6-4.6h-0.1
				c-2.3,0-4.2,1.9-4.2,4.2v4.1c0,5.7-4.6,10.3-10.3,10.3l0,0c-5.4,0-9.7-4.3-9.7-9.7V662c0-33.8,27.4-61.3,61.3-61.3h3
				C530.6,600.7,558.2,628.3,558.2,662.3z"/>
			<path class="st30" d="M558.2,656.4V699c0,6.2-5,11.3-11.3,11.3l0,0c-6.1,0-11-4.9-11-11v-12.2c0-3.1-2.5-5.7-5.7-5.7l0,0
				c-3,0-5.4,2.4-5.4,5.4v10.3c0,5.7-4.6,10.2-10.2,10.2h-7.5c-4.5,0-8.2-3.7-8.2-8.2l0,0c0-1.6-1.3-2.9-2.9-2.9h-9.4
				c-1.4,0-2.5,1.1-2.5,2.5l0,0c0,6-4.8,10.8-10.8,10.8h-1.7c-5.8,0-10.5-4.7-10.5-10.5v-13c0-2.6-2.1-4.6-4.6-4.6h-0.1
				c-2.3,0-4.2,1.9-4.2,4.2v4.1c0,5.7-4.6,10.3-10.3,10.3l0,0c-5.4,0-9.7-4.3-9.7-9.7V656c0-33.8,27.4-61.3,61.3-61.3h3
				C530.6,594.8,558.2,622.4,558.2,656.4z"/>
		</g>
		<path class="st28" d="M509.3,700.7L509.3,700.7c-2,0-3.7-1.7-3.7-3.7v-22.2c0-2,1.7-3.7,3.7-3.7l0,0c2,0,3.7,1.7,3.7,3.7V697
			C513,699,511.3,700.7,509.3,700.7z"/>
		<path class="st28" d="M443,691.8L443,691.8c-1,0-1.9-0.8-1.9-1.8v-40.7c0-1,0.8-1.8,1.9-1.8l0,0c1,0,1.9,0.8,1.9,1.8V690
			C444.9,690.9,444,691.8,443,691.8z"/>
		<path class="st28" d="M545.6,699.2L545.6,699.2c-2,0-3.7-1.7-3.7-3.7v-22.2c0-2,1.7-3.7,3.7-3.7l0,0c2,0,3.7,1.7,3.7,3.7v22.2
			C549.3,697.5,547.6,699.2,545.6,699.2z"/>
		<path class="st28" d="M511.5,654L511.5,654c-2,0.1-3.8-1.5-3.9-3.5l0,0c-0.1-2,1.5-3.8,3.5-3.9l0,0c2-0.1,3.8,1.5,3.9,3.5l0,0
			C515.1,652.1,513.6,653.9,511.5,654z"/>
		<path class="st28" d="M482.7,638.2L482.7,638.2c-4.7,0.2-8.7-3.4-8.9-8.1l0,0c-0.2-4.7,3.4-8.7,8.1-8.9l0,0
			c4.7-0.2,8.7,3.4,8.9,8.1l0,0C491,633.9,487.4,637.9,482.7,638.2z"/>
	</g>
	<g>
		<path class="st27" d="M386.1,734l-34.3,7.2c-10.5,2.2-20.9-4.6-23.1-15.1l0,0c-2.2-10.5,4.6-20.9,15.1-23.1l34.3-7.2
			c10.5-2.2,20.9,4.6,23.1,15.1l0,0C403.4,721.5,396.7,731.8,386.1,734z"/>
		<path class="st27" d="M333,729L333,729c-13.3,0-24-10.8-24-24v-12c0-13.3,10.8-24,24-24l0,0c13.3,0,24,10.8,24,24v12
			C357,718.3,346.3,729,333,729z"/>
		<path class="st27" d="M290.2,712l-6.3-9c-6-8.6-3.8-20.5,4.8-26.4l0,0c8.6-6,20.5-3.8,26.4,4.8l6.3,9c6,8.6,3.8,20.5-4.8,26.4l0,0
			C308,722.7,296.2,720.6,290.2,712z"/>
		<path class="st26" d="M326,735L326,735c-13.3,0-24-10.8-24-24v-12c0-13.3,10.8-24,24-24l0,0c13.3,0,24,10.8,24,24v12
			C350,724.3,339.3,735,326,735z"/>
		<path class="st26" d="M356,734h-11c-10.5,0-19-8.5-19-19l0,0c0-10.5,8.5-19,19-19h11c10.5,0,19,8.5,19,19l0,0
			C375,725.5,366.5,734,356,734z"/>
		<path class="st26" d="M291.7,738.6L264.2,717c-8.5-6.7-9.9-18.9-3.3-27.4l0,0c6.6-8.5,18.9-9.9,27.4-3.3l27.5,21.6
			c8.5,6.7,9.9,18.9,3.3,27.4l0,0C312.5,743.8,300.2,745.3,291.7,738.6z"/>
	</g>
	<g>
		<path class="st27" d="M457.1,735l-34.3,7.2c-10.5,2.2-20.9-4.6-23.1-15.1l0,0c-2.2-10.5,4.6-20.9,15.1-23.1l34.3-7.2
			c10.5-2.2,20.9,4.6,23.1,15.1l0,0C474.4,722.5,467.7,732.8,457.1,735z"/>
		<path class="st27" d="M404,730L404,730c-13.3,0-24-10.8-24-24v-12c0-13.3,10.8-24,24-24l0,0c13.3,0,24,10.8,24,24v12
			C428,719.3,417.3,730,404,730z"/>
		<path class="st27" d="M361.2,713l-6.3-9c-6-8.6-3.8-20.5,4.8-26.4l0,0c8.6-6,20.5-3.8,26.4,4.8l6.3,9c6,8.6,3.8,20.5-4.8,26.4l0,0
			C379,723.7,367.2,721.6,361.2,713z"/>
		<path class="st26" d="M397,736L397,736c-13.3,0-24-10.8-24-24v-12c0-13.3,10.8-24,24-24l0,0c13.3,0,24,10.8,24,24v12
			C421,725.3,410.3,736,397,736z"/>
		<path class="st26" d="M427,735h-11c-10.5,0-19-8.5-19-19l0,0c0-10.5,8.5-19,19-19h11c10.5,0,19,8.5,19,19l0,0
			C446,726.5,437.5,735,427,735z"/>
		<path class="st26" d="M362.7,739.6L335.2,718c-8.5-6.7-9.9-18.9-3.3-27.4l0,0c6.6-8.5,18.9-9.9,27.4-3.3l27.5,21.6
			c8.5,6.7,9.9,18.9,3.3,27.4l0,0C383.5,744.8,371.2,746.3,362.7,739.6z"/>
	</g>
	<g>
		<path class="st27" d="M207.6,738.5l-34.3,7.2c-10.5,2.2-20.9-4.6-23.1-15.1l0,0c-2.2-10.5,4.6-20.9,15.1-23.1l34.3-7.2
			c10.5-2.2,20.9,4.6,23.1,15.1l0,0C224.9,725.9,218.1,736.3,207.6,738.5z"/>
		<path class="st27" d="M154.5,733.4L154.5,733.4c-13.3,0-24-10.8-24-24v-12c0-13.3,10.8-24,24-24l0,0c13.3,0,24,10.8,24,24v12
			C178.5,722.7,167.7,733.4,154.5,733.4z"/>
		<path class="st27" d="M111.7,716.4l-6.3-9c-6-8.6-3.8-20.5,4.8-26.4l0,0c8.6-6,20.5-3.8,26.4,4.8l6.3,9c6,8.6,3.8,20.5-4.8,26.4
			l0,0C129.5,727.2,117.7,725,111.7,716.4z"/>
		<path class="st26" d="M147.5,739.4L147.5,739.4c-13.3,0-24-10.8-24-24v-12c0-13.3,10.8-24,24-24l0,0c13.3,0,24,10.8,24,24v12
			C171.5,728.7,160.7,739.4,147.5,739.4z"/>
		<path class="st26" d="M177.5,738.4h-11c-10.5,0-19-8.5-19-19l0,0c0-10.5,8.5-19,19-19h11c10.5,0,19,8.5,19,19l0,0
			C196.5,729.9,188,738.4,177.5,738.4z"/>
		<path class="st26" d="M113.2,743.1l-27.5-21.6c-8.5-6.7-9.9-18.9-3.3-27.4l0,0c6.7-8.5,18.9-9.9,27.4-3.3l27.5,21.6
			c8.5,6.7,9.9,18.9,3.3,27.4l0,0C133.9,748.3,121.7,749.7,113.2,743.1z"/>
	</g>
	<g>
		<path class="st27" d="M131.1,758l-34.3,7.2c-10.5,2.2-20.9-4.6-23.1-15.1l0,0c-2.2-10.5,4.6-20.9,15.1-23.1l34.3-7.2
			c10.5-2.2,20.9,4.6,23.1,15.1l0,0C148.4,745.5,141.7,755.8,131.1,758z"/>
		<path class="st27" d="M78,753L78,753c-13.3,0-24-10.8-24-24v-12c0-13.3,10.8-24,24-24l0,0c13.3,0,24,10.8,24,24v12
			C102,742.3,91.3,753,78,753z"/>
		<path class="st27" d="M35.2,736l-6.3-9c-6-8.6-3.8-20.5,4.8-26.4l0,0c8.6-6,20.5-3.8,26.4,4.8l6.3,9c6,8.6,3.8,20.5-4.8,26.4l0,0
			C53,746.7,41.2,744.6,35.2,736z"/>
		<path class="st26" d="M71,759L71,759c-13.3,0-24-10.8-24-24v-12c0-13.3,10.8-24,24-24l0,0c13.3,0,24,10.8,24,24v12
			C95,748.3,84.3,759,71,759z"/>
		<path class="st26" d="M101,758H90c-10.5,0-19-8.5-19-19l0,0c0-10.5,8.5-19,19-19h11c10.5,0,19,8.5,19,19l0,0
			C120,749.5,111.5,758,101,758z"/>
		<path class="st26" d="M36.7,762.6L9.2,741c-8.5-6.7-9.9-18.9-3.3-27.4l0,0c6.7-8.5,18.9-9.9,27.4-3.3L60.8,732
			c8.5,6.7,9.9,18.9,3.3,27.4l0,0C57.5,767.8,45.2,769.3,36.7,762.6z"/>
	</g>
	<g>
		<path class="st19" d="M960.7,756.4l-34.3,7.2c-10.5,2.2-20.9-4.6-23.1-15.1l0,0c-2.2-10.5,4.6-20.9,15.1-23.1l34.3-7.2
			c10.5-2.2,20.9,4.6,23.1,15.1l0,0C978,743.9,971.3,754.2,960.7,756.4z"/>
		<path class="st19" d="M907.6,751.4L907.6,751.4c-13.3,0-24-10.8-24-24v-12c0-13.3,10.8-24,24-24l0,0c13.3,0,24,10.8,24,24v12
			C931.6,740.6,920.9,751.4,907.6,751.4z"/>
		<path class="st19" d="M864.9,734.3l-6.3-9c-6-8.6-3.8-20.5,4.8-26.4l0,0c8.6-6,20.5-3.8,26.4,4.8l6.3,9c6,8.6,3.8,20.5-4.8,26.4
			l0,0C882.7,745.1,870.8,743,864.9,734.3z"/>
		<path class="st18" d="M900.6,757.4L900.6,757.4c-13.3,0-24-10.8-24-24v-12c0-13.3,10.8-24,24-24l0,0c13.3,0,24,10.8,24,24v12
			C924.6,746.6,913.9,757.4,900.6,757.4z"/>
		<path class="st18" d="M930.6,756.4h-11c-10.5,0-19-8.5-19-19l0,0c0-10.5,8.5-19,19-19h11c10.5,0,19,8.5,19,19l0,0
			C949.6,747.9,941.1,756.4,930.6,756.4z"/>
		<path class="st18" d="M866.3,761l-27.5-21.6c-8.5-6.7-9.9-18.9-3.3-27.4l0,0c6.7-8.5,18.9-9.9,27.4-3.3l27.5,21.6
			c8.5,6.7,9.9,18.9,3.3,27.4l0,0C887.1,766.2,874.8,767.7,866.3,761z"/>
	</g>
	<g>
		<g>
			<rect x="967" y="670" class="st25" width="25.7" height="48"/>
			<path class="st33" d="M1038,654.7v38.9c0,5.7-4.6,10.3-10.3,10.3l0,0c-5.5,0-10-4.5-10-10v-11.2c0-2.9-2.3-5.2-5.2-5.2l0,0
				c-2.7,0-4.9,2.2-4.9,4.9v9.4c0,5.2-4.2,9.3-9.3,9.3h-6.8c-4.1,0-7.5-3.3-7.5-7.5l0,0c0-1.5-1.2-2.7-2.7-2.7h-8.5
				c-1.3,0-2.3,1-2.3,2.3l0,0c0,5.4-4.4,9.8-9.8,9.8h-1.5c-5.3,0-9.6-4.3-9.6-9.6v-11.9c0-2.3-1.9-4.2-4.2-4.2h-0.1
				c-2.1,0-3.8,1.7-3.8,3.8v3.7c0,5.2-4.2,9.4-9.4,9.4l0,0c-4.9,0-8.9-4-8.9-8.9v-31.2c0-30.9,25-55.9,55.9-55.9h2.7
				C1012.8,598.4,1038,623.6,1038,654.7z"/>
			<path class="st26" d="M1038,649.3v38.9c0,5.7-4.6,10.3-10.3,10.3l0,0c-5.5,0-10-4.5-10-10v-11.2c0-2.9-2.3-5.2-5.2-5.2l0,0
				c-2.7,0-4.9,2.2-4.9,4.9v9.4c0,5.2-4.2,9.3-9.3,9.3h-6.8c-4.1,0-7.5-3.3-7.5-7.5l0,0c0-1.5-1.2-2.7-2.7-2.7h-8.5
				c-1.3,0-2.3,1-2.3,2.3l0,0c0,5.4-4.4,9.8-9.8,9.8h-1.5c-5.3,0-9.6-4.3-9.6-9.6v-11.9c0-2.3-1.9-4.2-4.2-4.2h-0.1
				c-2.1,0-3.8,1.7-3.8,3.8v3.7c0,5.2-4.2,9.4-9.4,9.4l0,0c-4.9,0-8.9-4-8.9-8.9v-31.2c0-30.9,25-55.9,55.9-55.9h2.7
				C1012.8,593,1038,618.2,1038,649.3z"/>
		</g>
		<path class="st25" d="M993.4,689.6L993.4,689.6c-1.9,0-3.4-1.5-3.4-3.4V666c0-1.9,1.5-3.4,3.4-3.4l0,0c1.9,0,3.4,1.5,3.4,3.4v20.3
			C996.8,688.1,995.3,689.6,993.4,689.6z"/>
		<path class="st25" d="M932.9,681.5L932.9,681.5c-0.9,0-1.7-0.8-1.7-1.7v-37.2c0-0.9,0.8-1.7,1.7-1.7l0,0c0.9,0,1.7,0.8,1.7,1.7
			v37.2C934.6,680.8,933.9,681.5,932.9,681.5z"/>
		<path class="st25" d="M1026.5,688.3L1026.5,688.3c-1.9,0-3.4-1.5-3.4-3.4v-20.3c0-1.9,1.5-3.4,3.4-3.4l0,0c1.9,0,3.4,1.5,3.4,3.4
			v20.3C1029.9,686.8,1028.4,688.3,1026.5,688.3z"/>
		<path class="st25" d="M995.4,647L995.4,647c-1.9,0.1-3.5-1.3-3.5-3.2l0,0c-0.1-1.9,1.3-3.5,3.2-3.5l0,0c1.9-0.1,3.5,1.3,3.5,3.2
			l0,0C998.7,645.4,997.3,646.9,995.4,647z"/>
		<path class="st25" d="M969.2,632.6L969.2,632.6c-4.3,0.2-7.9-3.1-8.1-7.4l0,0c-0.2-4.3,3.1-7.9,7.4-8.1l0,0
			c4.3-0.2,7.9,3.1,8.1,7.4l0,0C976.7,628.7,973.4,632.4,969.2,632.6z"/>
	</g>
</g>
<g id="Layer_4">
	<g>
		<g>
			<g>
				<path class="st20" d="M800.5,486v148c0,17.7-10.4,32-23.3,32h-78.8v40h34.7c14.5,0,26.3,11.8,26.3,26.3v8.7h-215
					c0-9.7,3.9-18.4,10.3-24.8s15.1-10.3,24.8-10.3h17V561.1l-78.5-1.4c-12.8-0.2-23.1-10.8-22.8-23.7l2-110.7l38,0.7l-1.3,69.2
					c-0.2,13.1,10.2,23.9,23.3,24.2l39.2,0.7V435h102v178.8h37.3c13.1,0,23.8-14.6,23.8-32.6V486H800.5z"/>
				<path class="st22" d="M618.5,606L618.5,606c-2.8,0-5-2.2-5-5V461c0-2.8,2.2-5,5-5l0,0c2.8,0,5,2.2,5,5v140
					C623.5,603.8,621.3,606,618.5,606z"/>
				<path class="st21" d="M882.5,369.1v184.5c0,11.8-9.6,21.4-21.4,21.4h-2c-11.9,0-21.6-9.7-21.6-21.6v-96.5
					c0-15.4-12.5-27.9-27.9-27.9l0,0c-16.1,0-29.1,13-29.1,29.1v100.5c0,10.1-8.2,18.4-18.4,18.4h-2.4c-10.6,0-19.3-8.6-19.3-19.3
					v-28.3c0-16.3-13.2-29.5-29.5-29.5h-29.5c-15.2,0-27.5,12.3-27.5,27.5l0,0c0,16.8-13.7,30.5-30.5,30.5h-0.3
					c-16.1,0-29.2-13.1-29.2-29.3v-78.1c0-11.9-9.7-21.6-21.6-21.6h-3.9c-11,0-20,9-20,20v89.5c0,6.9-5.6,12.5-12.5,12.5l0,0
					c-6.9,0-12.5-5.6-12.5-12.5v-97c0-6.9-5.6-12.5-12.5-12.5h-5c-6.9,0-12.5,5.6-12.5,12.5V505c0,12.6-10.2,22.9-22.9,22.9l0,0
					c-13.9,0-25.1-11.3-25.1-25.1V367.5C445.5,257.9,534.4,169,644,169h38.4C792.9,169,882.5,258.6,882.5,369.1z"/>
				<path class="st22" d="M679.5,696L679.5,696c-5.5,0-10-4.5-10-10v-83c0-5.5,4.5-10,10-10l0,0c5.5,0,10,4.5,10,10v83
					C689.5,691.5,685,696,679.5,696z"/>
				<path class="st22" d="M623,717L623,717c-4.1,0-7.5-3.4-7.5-7.5v-15c0-4.1,3.4-7.5,7.5-7.5l0,0c4.1,0,7.5,3.4,7.5,7.5v15
					C630.5,713.6,627.1,717,623,717z"/>
				<path class="st22" d="M871.5,489.1v113.7c0,15.6-12.7,28.3-28.3,28.3H841c-17.4,0-31.5-14.1-31.5-31.5V599c0-5.5-4.5-10-10-10
					H759c-9.1,0-16.5,7.4-16.5,16.5V644c0,7.7-6.3,14-14,14h-3c-7.2,0-13-5.8-13-13V489.5c0-35.6,23.5-67.2,57.9-76.5
					c30.3-8.2,59,1.2,78,20.2C862.7,447.5,871.5,467.2,871.5,489.1z"/>
				<path class="st23" d="M787.5,507L787.5,507c-2.8,0-5-2.2-5-5v-70c0-2.8,2.2-5,5-5l0,0c2.8,0,5,2.2,5,5v70
					C792.5,504.8,790.3,507,787.5,507z"/>
				<path class="st23" d="M852.5,604L852.5,604c-5.5,0-10-4.5-10-10v-49c0-5.5,4.5-10,10-10l0,0c5.5,0,10,4.5,10,10v49
					C862.5,599.5,858,604,852.5,604z"/>
				<path class="st23" d="M750.5,551L750.5,551c-7.7,0-14-6.3-14-14l0,0c0-7.7,6.3-14,14-14l0,0c7.7,0,14,6.3,14,14l0,0
					C764.5,544.7,758.2,551,750.5,551z"/>
				<path class="st23" d="M829.5,517L829.5,517c-5.5,0-10-4.5-10-10l0,0c0-5.5,4.5-10,10-10l0,0c5.5,0,10,4.5,10,10l0,0
					C839.5,512.5,835,517,829.5,517z"/>
				<path class="st23" d="M854.5,489L854.5,489c-2.8,0-5-2.2-5-5l0,0c0-2.8,2.2-5,5-5l0,0c2.8,0,5,2.2,5,5l0,0
					C859.5,486.8,857.3,489,854.5,489z"/>
				<path class="st22" d="M573.5,303.4V595c0,4.4-3.6,8-8,8h-0.8c-5.1,0-9.3-4.1-9.3-9.3V489.9c0-3.2-2.6-5.9-5.9-5.9h-1
					c-2.8,0-5.1,2.3-5.1,5.1v30.1c0,8.7-7,15.8-15.8,15.8l0,0c-9,0-16.3-7.3-16.3-16.3v-46.3c0-5.3-4.3-9.5-9.5-9.5h-0.9
					c-4.8,0-8.6,3.9-8.6,8.6v87.3c0,5.6-4.5,10.1-10.1,10.1h-0.8c-5.6,0-10.1-4.5-10.1-10.1V300.6c0-27.4,22.2-49.6,49.6-49.6l0,0
					C550,251,573.5,274.5,573.5,303.4z"/>
			</g>
			<path class="st23" d="M526.5,521L526.5,521c-3.9,0-7-3.1-7-7v-74c0-3.9,3.1-7,7-7l0,0c3.9,0,7,3.1,7,7v74
				C533.5,517.9,530.4,521,526.5,521z"/>
			<path class="st23" d="M548.5,364L548.5,364c-6.6,0-12-5.4-12-12v-64c0-6.6,5.4-12,12-12l0,0c6.6,0,12,5.4,12,12v64
				C560.5,358.6,555.1,364,548.5,364z"/>
			<path class="st23" d="M492.5,396L492.5,396c-6.6,0-12,5.4-12,12l0,0c0,6.6,5.4,12,12,12l0,0c6.6,0,12-5.4,12-12l0,0
				C504.5,401.4,499.1,396,492.5,396z"/>
			<path class="st23" d="M519.5,335L519.5,335c-5.5,0-10,4.5-10,10l0,0c0,5.5,4.5,10,10,10l0,0c5.5,0,10-4.5,10-10l0,0
				C529.5,339.5,525,335,519.5,335z"/>
			<path class="st23" d="M487.5,283.5L487.5,283.5c-4.1,0-7.5,3.4-7.5,7.5l0,0c0,4.1,3.4,7.5,7.5,7.5l0,0c4.1,0,7.5-3.4,7.5-7.5l0,0
				C495,286.9,491.6,283.5,487.5,283.5z"/>
			<path class="st23" d="M567,594L567,594c-1.4,0-2.5-1.1-2.5-2.5v-65c0-1.4,1.1-2.5,2.5-2.5l0,0c1.4,0,2.5,1.1,2.5,2.5v65
				C569.5,592.9,568.4,594,567,594z"/>
		</g>
		<path class="st22" d="M849,406L849,406c-7.5,0-13.5-6-13.5-13.5v-48c0-7.5,6-13.5,13.5-13.5l0,0c7.5,0,13.5,6,13.5,13.5v48
			C862.5,400,856.5,406,849,406z"/>
		<path class="st22" d="M620.5,541L620.5,541c-5.5,0-10-4.5-10-10v-73c0-5.5,4.5-10,10-10l0,0c5.5,0,10,4.5,10,10v73
			C630.5,536.5,626,541,620.5,541z"/>
		<path class="st22" d="M727.5,404h-4c-5.5,0-10-4.5-10-10V294c0-5.5,4.5-10,10-10h4c5.5,0,10,4.5,10,10v100
			C737.5,399.5,733,404,727.5,404z"/>
		<path class="st22" d="M691.5,443L691.5,443c-5.5,0-10-4.5-10-10l0,0c0-5.5,4.5-10,10-10l0,0c5.5,0,10,4.5,10,10l0,0
			C701.5,438.5,697,443,691.5,443z"/>
		<path class="st22" d="M625,278L625,278c-13,0-23.5-10.5-23.5-23.5l0,0c0-13,10.5-23.5,23.5-23.5l0,0c13,0,23.5,10.5,23.5,23.5l0,0
			C648.5,267.5,638,278,625,278z"/>
		<path class="st22" d="M795,332L795,332c-10.1,0-18.3-8.2-18.3-18.3v-2.5c0-10.1,8.2-18.3,18.3-18.3l0,0c10.1,0,18.3,8.2,18.3,18.3
			v2.5C813.3,323.8,805.1,332,795,332z"/>
	</g>
</g>
<g id="Layer_1">
	<g>
		<g>
			<g>
				<g>
					<g>
						<g>
							<path class="st16" d="M1092,682.4v19.9c0,2,1.7,3.7,3.7,3.7h25.4c12.1,0,21.9,9.8,21.9,21.9v2.4c0,2-1.7,3.7-3.7,3.7H944.4
								c-2,0-3.7-1.6-3.7-3.6c0-6.7,2.7-12.8,7.1-17.3c4.4-4.4,10.5-7.1,17.2-7.1h23.3c2,0,3.7-1.7,3.7-3.7v-95.2
								c0-5.6-4.5-10.1-10.1-10.1h-30.6c-16.7,0-30.2-13.5-30.2-30.2v-76.1c0-2,1.7-3.7,3.7-3.7h23.6c2,0,3.7,1.6,3.7,3.7v58
								c0,11.8,9.5,21.3,21.3,21.3l0,0c10.3,0,18.7-8.4,18.7-18.7v-46.6c0-2,1.7-3.7,3.7-3.7h92.6c2,0,3.7,1.6,3.7,3.7v117.5
								c0,8.8,7.2,15.8,15.9,15.7l10.5-0.1c7.4-0.1,13.4-9.9,13.3-22l-0.9-81l0,0l23.7-0.3l0,0l1.2,103.4c0.2,18.2-8.7,33-20,33.1
								l-32.7,0.4C1096.9,671.5,1092,676.4,1092,682.4z"/>
							<path class="st18" d="M1006,701L1006,701c-4.4,0-8-3.6-8-8v-28.1c0-4.4,3.6-8,8-8l0,0c4.4,0,8,3.6,8,8V693
								C1014,697.4,1010.4,701,1006,701z"/>
							<path class="st18" d="M1072,687L1072,687c2.8,0,5-2.2,5-5v-80c0-2.8-2.2-5-5-5l0,0c-2.8,0-5,2.2-5,5v80
								C1067,684.8,1069.2,687,1072,687z"/>
							<path class="st18" d="M1032,608L1032,608c2.2,0,4-1.8,4-4v-72c0-2.2-1.8-4-4-4l0,0c-2.2,0-4,1.8-4,4v72
								C1028,606.2,1029.8,608,1032,608z"/>
							<path class="st18" d="M1092,717.9L1092,717.9c0,1.6,0.8,2.9,1.9,2.9l26.2,0.2c1.1,0,1.9-1.3,1.9-2.9l0,0
								c0-1.6-0.8-2.9-1.9-2.9l-26.2-0.2C1092.9,715,1092,716.3,1092,717.9z"/>
							<path class="st18" d="M929,549L929,549c1.6,0,2.9-0.9,2.9-1.9L932,521c0-1.1-1.3-1.9-2.9-1.9l0,0c-1.6,0-2.9,0.9-2.9,1.9
								l-0.1,26.1C926,548.1,927.3,549,929,549z"/>
						</g>
						<path class="st17" d="M1263,468.1v107.1c0,8.7-7.1,15.8-15.8,15.8l0,0c-10.6,0-19.3-8.6-19.3-19.3v-53.4
							c0-8.9-7.2-16.1-16.1-16.1l0,0c-9.9,0-17.9,8-17.9,17.9v24.1c0,9.8-8,17.8-17.8,17.8H1144l0,0c0-6.6-5.4-12-12-12h-1.5
							c-5.3,0-9.5,4.3-9.5,9.5v23.8c0,14.2-11.5,25.8-25.8,25.8l0,0c-14.5,0-26.3-11.8-26.3-26.3v-57.7c0-12.6-10.2-22.9-22.8-22.9
							l0,0c-12.2,0-22.2,9.9-22.2,22.1v69.9c0,13.1-10.6,23.8-23.8,23.8l0,0c-14,0-25.3-11.3-25.3-25.3v-4.3
							c0-21.8-17.7-39.5-39.5-39.5H920c-9,0-16.3,7.3-16.3,16.3l0,0c0,12.6-10.2,22.8-22.8,22.8l0,0c-14,0-25.3-11.3-25.3-25.3
							v-94.6c0-105.5,85.5-191,191-191h25C1177.5,277.1,1263,362.6,1263,468.1z"/>
						<path class="st18" d="M1234,540v44.6c0,6.3-5.1,11.4-11.4,11.4l0,0c-6.4,0-11.6-5.2-11.6-11.6v-8.3c0-7.3-5.9-13.1-13.1-13.1
							l0,0c-7.1,0-12.9,5.8-12.9,12.9v34c0,6.7-5.4,12.1-12.1,12.1l0,0c-6.6,0-11.9-5.3-11.9-11.9v-35.5c0-6.4-5.2-11.6-11.6-11.6
							l0,0c-6.3,0-11.4,5.1-11.4,11.4v23.8c0,6-4.9,10.9-10.9,10.9l0,0c-6.1,0-11.1-5-11.1-11.1v-58c0-32.6,26.4-59,59-59l0,0
							C1207.6,481,1234,507.4,1234,540z"/>
					</g>
					<path class="st19" d="M1129,575L1129,575c-2.8,0-5-2.2-5-5v-20c0-2.8,2.2-5,5-5l0,0c2.8,0,5,2.2,5,5v20
						C1134,572.8,1131.8,575,1129,575z"/>
					<path class="st19" d="M1178,564L1178,564c-2.8,0-5-2.2-5-5v-40c0-2.8,2.2-5,5-5l0,0c2.8,0,5,2.2,5,5v40
						C1183,561.8,1180.8,564,1178,564z"/>
					<path class="st19" d="M1212,556L1212,556c-5.5,0-10-4.5-10-10l0,0c0-5.5,4.5-10,10-10l0,0c5.5,0,10,4.5,10,10l0,0
						C1222,551.5,1217.5,556,1212,556z"/>
					<path class="st19" d="M1147.3,529.8h-2c-2.8,0-5-2.2-5-5v-2c0-2.8,2.2-5,5-5h2c2.8,0,5,2.2,5,5v2
						C1152.3,527.5,1150,529.8,1147.3,529.8z"/>
					<path class="st19" d="M1160,511.5L1160,511.5c-1.4,0-2.5-1.1-2.5-2.5l0,0c0-1.4,1.1-2.5,2.5-2.5l0,0c1.4,0,2.5,1.1,2.5,2.5l0,0
						C1162.5,510.4,1161.4,511.5,1160,511.5z"/>
				</g>
				<path class="st18" d="M974,420.4v143c0,3.7-3,6.6-6.6,6.6l0,0c-4.1,0-7.4-3.3-7.4-7.4v-35.9c0-5.4-4.3-9.7-9.7-9.7l0,0
					c-5.1,0-9.3,4.2-9.3,9.3v44.3c0,5.2-4.2,9.4-9.4,9.4l0,0c-5.3,0-9.6-4.3-9.6-9.6v-49.7c0-2-1.7-3.7-3.7-3.7l0,0
					c-2.4,0-4.3,1.9-4.3,4.3v94c0,4.2-3.4,7.7-7.7,7.7l0,0c-4.6,0-8.3-3.7-8.3-8.3V420.3c0-32.9,39.3-50.9,63.5-28.5
					c0.4,0.4,0.8,0.7,1.1,1.1C969.6,399.9,974,409.6,974,420.4z"/>
			</g>
			<path class="st19" d="M906,614L906,614c-1.7,0-3-1.3-3-3v-39c0-1.7,1.3-3,3-3l0,0c1.7,0,3,1.3,3,3v39
				C909,612.7,907.7,614,906,614z"/>
			<path class="st19" d="M950,469L950,469c-3.9,0-7-3.1-7-7v-41c0-3.9,3.1-7,7-7l0,0c3.9,0,7,3.1,7,7v41
				C957,465.9,953.9,469,950,469z"/>
			<path class="st19" d="M915,509L915,509c-2.8,0-5-2.2-5-5v-45c0-2.8,2.2-5,5-5l0,0c2.8,0,5,2.2,5,5v45
				C920,506.8,917.8,509,915,509z"/>
			<path class="st19" d="M967,520L967,520c-2.8,0-5-2.2-5-5l0,0c0-2.8,2.2-5,5-5l0,0c2.8,0,5,2.2,5,5l0,0
				C972,517.8,969.8,520,967,520z"/>
			<path class="st19" d="M917,427L917,427c-2.2,0-4-1.8-4-4l0,0c0-2.2,1.8-4,4-4l0,0c2.2,0,4,1.8,4,4l0,0
				C921,425.2,919.2,427,917,427z"/>
		</g>
		<path class="st18" d="M1168.5,460L1168.5,460c8,0,14.5-6.5,14.5-14.5v-51c0-8-6.5-14.5-14.5-14.5l0,0c-8,0-14.5,6.5-14.5,14.5v51
			C1154,453.5,1160.5,460,1168.5,460z"/>
		<path class="st18" d="M1073.5,486h4c8,0,14.5-6.5,14.5-14.5v-66c0-8-6.5-14.5-14.5-14.5h-4c-8,0-14.5,6.5-14.5,14.5v66
			C1059,479.5,1065.5,486,1073.5,486z"/>
		<path class="st18" d="M999.5,562L999.5,562c8,0,14.5-6.5,14.5-14.5l0,0c0-8-6.5-14.5-14.5-14.5l0,0c-8,0-14.5,6.5-14.5,14.5l0,0
			C985,555.5,991.5,562,999.5,562z"/>
		<path class="st18" d="M1232.9,489h0.3c9.3,0,16.9-7.6,16.9-16.9v-0.3c0-9.3-7.6-16.9-16.9-16.9h-0.3c-9.3,0-16.9,7.6-16.9,16.9
			v0.3C1216,481.4,1223.6,489,1232.9,489z"/>
		<path class="st18" d="M1010.5,384L1010.5,384c6.9,0,12.5-5.6,12.5-12.5v-55c0-6.9-5.6-12.5-12.5-12.5l0,0
			c-6.9,0-12.5,5.6-12.5,12.5v55C998,378.4,1003.6,384,1010.5,384z"/>
		<path class="st18" d="M879,577L879,577c5.5,0,10-4.5,10-10v-40c0-5.5-4.5-10-10-10l0,0c-5.5,0-10,4.5-10,10v40
			C869,572.5,873.5,577,879,577z"/>
		<path class="st18" d="M1082,596L1082,596c2.8,0,5-2.2,5-5v-70c0-2.8-2.2-5-5-5l0,0c-2.8,0-5,2.2-5,5v70
			C1077,593.8,1079.2,596,1082,596z"/>
	</g>
</g>
<g id="Layer_8">
	<g>
		<path class="st16" d="M523.6,758.3h-22V377.9c0-4.9,4-8.9,8.9-8.9h5c4.5,0,8.1,3.6,8.1,8.1V758.3z"/>
		<g>
			<path class="st17" d="M476.5,468v35.5c0,3.5,1.5,6.6,3.8,8.9c2.2,2.1,5.1,3.4,8.4,3.4c7.1,0,12.9-5.8,12.9-12.9v-48L480.3,466
				L476.5,468z"/>
			<path class="st18" d="M455.2,479.2V515c0,4.3,2.3,8.1,5.6,10.3c1.9,1.2,4.1,1.9,6.6,1.9c7.1,0,12.9-5.8,12.9-12.9V466l-3.8,2
				l-15.2,8L455.2,479.2z"/>
			<path class="st19" d="M436.1,489.2v33.4c0,3.1,1.1,5.9,3,8.1c2.2,2.5,5.5,4.1,9.2,4.1c6,0,11-4,12.4-9.5c0.3-1.1,0.4-2.2,0.4-3.4
				V476l-6.1,3.2l-16,8.4L436.1,489.2z"/>
			<path class="st18" d="M414.1,500.7v35.5c0,6.7,5.5,12.2,12.2,12.2c7.1,0,12.9-5.8,12.9-12.9v-48l-3,1.6L414.1,500.7z"/>
		</g>
		<g>
			<path class="st17" d="M476.5,397.3v35.5c0,3.5,1.5,6.6,3.8,8.9c2.2,2.1,5.1,3.4,8.4,3.4c7.1,0,12.9-5.8,12.9-12.9v-48l-21.3,11.2
				L476.5,397.3z"/>
			<path class="st18" d="M455.2,408.5v35.8c0,4.3,2.3,8.1,5.6,10.3c1.9,1.2,4.1,1.9,6.6,1.9c7.1,0,12.9-5.8,12.9-12.9v-48.3l-3.8,2
				l-15.2,8L455.2,408.5z"/>
			<path class="st19" d="M436.1,418.5v33.4c0,3.1,1.1,5.9,3,8.1c2.2,2.5,5.5,4.1,9.2,4.1c6,0,11-4,12.4-9.5c0.3-1.1,0.4-2.2,0.4-3.4
				v-45.9l-6.1,3.2l-16,8.4L436.1,418.5z"/>
			<path class="st18" d="M414.1,430v35.5c0,6.7,5.5,12.2,12.2,12.2c7.1,0,12.9-5.8,12.9-12.9v-48l-3,1.6L414.1,430z"/>
		</g>
		<g>
			<path class="st17" d="M476.5,548.6v35.5c0,3.5,1.5,6.6,3.8,8.8c2.2,2.1,5.1,3.4,8.4,3.4c7.1,0,12.9-5.8,12.9-12.9v-48l-21.3,11.2
				L476.5,548.6z"/>
			<path class="st18" d="M455.2,559.8v35.8c0,4.3,2.3,8.1,5.6,10.3c1.9,1.2,4.1,1.9,6.6,1.9c7.1,0,12.9-5.8,12.9-12.9v-48.3l-3.8,2
				l-15.2,8L455.2,559.8z"/>
			<path class="st19" d="M436.1,569.8v33.4c0,3.1,1.1,5.9,3,8.1c2.2,2.5,5.5,4.2,9.2,4.2c6,0,11-4,12.4-9.5c0.3-1.1,0.4-2.2,0.4-3.4
				v-45.9l-6.1,3.2l-16,8.4L436.1,569.8z"/>
			<path class="st18" d="M414.1,581.3v35.5c0,6.7,5.5,12.2,12.2,12.2c7.1,0,12.9-5.8,12.9-12.9v-48l-3,1.6L414.1,581.3z"/>
		</g>
		<g>
			<path class="st17" d="M548.7,468v35.5c0,3.5-1.5,6.6-3.8,8.9c-2.2,2.1-5.2,3.4-8.4,3.4c-7.1,0-12.9-5.8-12.9-12.9v-48l21.3,11.2
				L548.7,468z"/>
			<path class="st18" d="M570,479.2V515c0,4.3-2.3,8.1-5.6,10.3c-1.9,1.2-4.2,1.9-6.6,1.9c-7.1,0-12.9-5.8-12.9-12.9V466l3.8,2
				l15.2,8L570,479.2z"/>
			<path class="st19" d="M589,489.2v33.4c0,3.1-1.2,5.9-3,8.1c-2.2,2.5-5.5,4.1-9.2,4.1c-6,0-11-4-12.4-9.5
				c-0.3-1.1-0.4-2.2-0.4-3.4V476l6.1,3.2l16,8.4L589,489.2z"/>
			<path class="st18" d="M611,500.8v35.5c0,6.7-5.5,12.2-12.2,12.2c-7.1,0-12.9-5.8-12.9-12.9v-48l3,1.6L611,500.8z"/>
		</g>
		<g>
			<path class="st17" d="M548.7,398v35.5c0,3.5-1.5,6.6-3.8,8.9c-2.2,2.1-5.2,3.4-8.4,3.4c-7.1,0-12.9-5.8-12.9-12.9v-48l21.3,11.2
				L548.7,398z"/>
			<path class="st18" d="M570,409.2V445c0,4.3-2.3,8.1-5.6,10.3c-1.9,1.2-4.2,1.9-6.6,1.9c-7.1,0-12.9-5.8-12.9-12.9V396l3.8,2
				l15.2,8L570,409.2z"/>
			<path class="st19" d="M589,419.2v33.4c0,3.1-1.2,5.9-3,8.1c-2.2,2.5-5.5,4.1-9.2,4.1c-6,0-11-4-12.4-9.5
				c-0.3-1.1-0.4-2.2-0.4-3.4V406l6.1,3.2l16,8.4L589,419.2z"/>
			<path class="st18" d="M611,430.8v35.5c0,6.7-5.5,12.2-12.2,12.2c-7.1,0-12.9-5.8-12.9-12.9v-48l3,1.6L611,430.8z"/>
		</g>
		<g>
			<path class="st17" d="M548.7,549.3v35.5c0,3.5-1.5,6.6-3.8,8.8c-2.2,2.1-5.2,3.4-8.4,3.4c-7.1,0-12.9-5.8-12.9-12.9v-48
				l21.3,11.2L548.7,549.3z"/>
			<path class="st18" d="M570,560.5v35.8c0,4.3-2.3,8.1-5.6,10.3c-1.9,1.2-4.2,1.9-6.6,1.9c-7.1,0-12.9-5.8-12.9-12.9v-48.3l3.8,2
				l15.2,8L570,560.5z"/>
			<path class="st19" d="M589,570.5v33.4c0,3.1-1.2,5.9-3,8.1c-2.2,2.5-5.5,4.2-9.2,4.2c-6,0-11-4-12.4-9.5
				c-0.3-1.1-0.4-2.2-0.4-3.4v-45.9l6.1,3.2l16,8.4L589,570.5z"/>
			<path class="st18" d="M611,582.1v35.5c0,6.7-5.5,12.2-12.2,12.2c-7.1,0-12.9-5.8-12.9-12.9v-48l3,1.6L611,582.1z"/>
		</g>
	</g>
	<g>
		<path class="st19" d="M552.4,736.8l-12.6,5.3c-2.7,1.2-5.4-2.4-5.9-7.9l-0.4-4.1c-0.6-5.5,1.2-10.9,3.9-12l12.6-5.3
			c2.7-1.2,5.4,2.4,5.9,7.9l0.4,4.1C556.8,730.3,555.1,735.6,552.4,736.8z"/>
		<path class="st19" d="M535.9,734.1h-2c-3.6,0-6.4-2.9-6.4-6.4v-24.8c0-3.6,2.9-6.4,6.4-6.4h2c3.6,0,6.4,2.9,6.4,6.4v24.8
			C542.4,731.2,539.5,734.1,535.9,734.1z"/>
		<path class="st19" d="M522.3,725l-3.1-9c-1.5-4.5-1-10.7,1.2-13.8l1.6-2.3c2.2-3.1,5.3-2,6.8,2.5l3.1,9c1.5,4.5,1,10.7-1.2,13.8
			l-1.6,2.3C526.8,730.6,523.8,729.5,522.3,725z"/>
		<path class="st18" d="M533.8,737.8h-2c-3.6,0-6.4-2.9-6.4-6.4v-24.8c0-3.6,2.9-6.4,6.4-6.4h2c3.6,0,6.4,2.9,6.4,6.4v24.8
			C540.2,734.9,537.3,737.8,533.8,737.8z"/>
		<path class="st18" d="M542.9,737.2h-5c-2.8,0-5.1-2.3-5.1-5.1v-13.7c0-2.8,2.3-5.1,5.1-5.1h5c2.8,0,5.1,2.3,5.1,5.1v13.7
			C548,734.9,545.7,737.2,542.9,737.2z"/>
		<path class="st18" d="M523,741.4l-10.1-16.1c-2.2-3.5-2.6-9.9-0.9-14.3l1.3-3.3c1.7-4.4,4.9-5.2,7-1.7l10.1,16.1
			c2.2,3.5,2.6,9.9,0.8,14.3l-1.3,3.3C528.3,744.1,525.1,744.9,523,741.4z"/>
	</g>
	<g>
		<path class="st19" d="M594.2,750.1l-13.1,6.8c-2.8,1.5-5.6-3-6.2-10l-0.5-5.2c-0.6-7,1.2-13.9,4-15.4l13.1-6.8
			c2.8-1.5,5.6,3,6.2,10l0.5,5.2C598.8,741.7,597,748.6,594.2,750.1z"/>
		<path class="st19" d="M577.3,746.7h-2.6c-3.6,0-6.5-2.4-6.5-5.3L568,704c0-3,2.9-5.4,6.4-5.4h2.6c3.6,0,6.5,2.4,6.5,5.3l0.2,37.3
			C583.7,744.2,580.8,746.7,577.3,746.7z"/>
		<path class="st19" d="M562.7,735.2l-3.3-11.5c-1.6-5.7-1.1-13.6,1.2-17.6l1.7-2.9c2.3-4,5.5-2.5,7.1,3.2l3.3,11.5
			c1.6,5.7,1.1,13.6-1.2,17.6l-1.7,2.9C567.5,742.3,564.3,740.9,562.7,735.2z"/>
		<path class="st18" d="M575,751.5h-2.6c-3.6,0-6.5-2.4-6.5-5.3l-0.2-37.3c0-3,2.9-5.4,6.4-5.4h2.6c3.6,0,6.5,2.4,6.5,5.3l0.2,37.3
			C581.5,749.1,578.6,751.5,575,751.5z"/>
		<path class="st18" d="M584.4,750.7h-5.6c-2.8,0-5.1-1.9-5.1-4.2l-0.1-21.9c0-2.3,2.3-4.3,5.1-4.3h5.6c2.8,0,5.1,1.9,5.1,4.2
			l0.1,21.9C589.5,748.7,587.3,750.6,584.4,750.7z"/>
		<path class="st18" d="M563.5,756.1l-10.7-20.5c-2.3-4.4-2.7-12.6-1-18.2l1.3-4.2c1.8-5.6,5-6.6,7.3-2.2l10.7,20.5
			c2.3,4.4,2.7,12.6,1,18.2l-1.3,4.2C569.1,759.5,565.8,760.5,563.5,756.1z"/>
	</g>
	<g>
		<path class="st19" d="M513.7,737.3l-13.2,3.9c-2.8,0.8-5.6-1.7-6.2-5.7l-0.4-3c-0.6-4,1.2-7.9,4-8.7l13.2-3.9
			c2.8-0.8,5.6,1.7,6.2,5.7l0.4,3C518.3,732.5,516.5,736.5,513.7,737.3z"/>
		<path class="st19" d="M496.8,735.3h-2.6c-3.6,0-6.4-2.9-6.4-6.4v-14.4c0-3.6,2.9-6.4,6.4-6.4h2.6c3.6,0,6.4,2.9,6.4,6.4v14.4
			C503.2,732.4,500.3,735.3,496.8,735.3z"/>
		<path class="st19" d="M482.2,728.8l-3.2-6.5c-1.6-3.3-1-7.7,1.3-10l1.7-1.7c2.3-2.3,5.5-1.4,7.1,1.8l3.2,6.5c1.6,3.3,1,7.7-1.3,10
			l-1.7,1.7C487,732.8,483.8,732,482.2,728.8z"/>
		<path class="st18" d="M494.5,738h-2.6c-3.6,0-6.4-2.9-6.4-6.4v-14.4c0-3.6,2.9-6.4,6.4-6.4h2.6c3.6,0,6.4,2.9,6.4,6.4v14.4
			C501,735.2,498.1,738,494.5,738z"/>
		<path class="st18" d="M503.9,737.6h-5.6c-2.8,0-5.1-2.3-5.1-5.1v-7.1c0-2.8,2.3-5.1,5.1-5.1h5.6c2.8,0,5.1,2.3,5.1,5.1v7.1
			C509,735.3,506.7,737.6,503.9,737.6z"/>
		<path class="st18" d="M483,740.6l-10.6-11.7c-2.3-2.5-2.7-7.1-0.9-10.3l1.3-2.4c1.8-3.2,5.1-3.8,7.4-1.2l10.6,11.7
			c2.3,2.5,2.7,7.1,0.9,10.3l-1.3,2.4C488.5,742.6,485.2,743.1,483,740.6z"/>
	</g>
</g>
<g id="Layer_3">
	<g>
		<g>
			<g>
				<g>
					<g>
						<path class="st25" d="M336,730L336,730c0,1.2-1,2.2-2.2,2.2H129.2c-1.2,0-2.2-1-2.2-2.2v-1.7c0-13.8,11.2-25.1,25.1-25.1h5.7
							c1.2,0,2.2-1,2.2-2.2V440.8c0-1.2,1-2.2,2.2-2.2h113.6c1.2,0,2.2,1,2.2,2.2V696c0,4,3.2,7.2,7.2,7.2h24.1
							C324,703.2,336,715.2,336,730z"/>
						<path class="st25" d="M356,420.2v113.3c0,10.4-8.4,18.8-18.8,18.8H243c-0.6,0-1-0.5-1-1v-26c0-0.5,0.4-1,1-1h67.5
							c5.8,0,10.5-4.7,10.5-10.5v-93.5c0-0.5,0.5-1,1-1h33C355.5,419.2,356,419.6,356,420.2z"/>
						<path class="st25" d="M193.5,664.8l-113.2-1.9c-10.3-0.2-18.6-8.7-18.4-19.1l1.6-94.2c0-0.5,0.5-1,1-1l26,0.4c0.6,0,1,0.5,1,1
							l-1.1,67.5c-0.1,5.8,4.5,10.6,10.3,10.7l93.5,1.6c0.6,0,1,0.5,1,1l-0.6,33C194.5,664.3,194.1,664.8,193.5,664.8z"/>
						<path class="st26" d="M180.5,551.4L180.5,551.4c-4.7,0-8.5-3.8-8.5-8.5V467c0-4.7,3.8-8.5,8.5-8.5l0,0c4.7,0,8.5,3.8,8.5,8.5
							v75.9C189,547.5,185.2,551.4,180.5,551.4z"/>
						<path class="st26" d="M257.3,722.8L257.3,722.8c-4.4,0-8-3.6-8-8v-34c0-4.4,3.6-8,8-8l0,0c4.4,0,8,3.6,8,8v34
							C265.3,719.2,261.7,722.8,257.3,722.8z"/>
						<path class="st26" d="M225.5,679.9L225.5,679.9c-3.3,0-6-2.7-6-6v-92c0-3.3,2.7-6,6-6l0,0c3.3,0,6,2.7,6,6v92
							C231.5,677.2,228.8,679.9,225.5,679.9z"/>
					</g>
					<path class="st33" d="M440.5,355v167.8c0,9-8.5,16.4-19,16.4h-2.3c-12.6,0-22.8-8.8-22.8-19.6v-43.1
						c0-21.4-20.2-38.8-45.1-38.8l0,0c-21,0-38.1,14.7-38.1,32.8v15.2c0,12.7-11.9,22.9-26.6,22.9h-1.2c-13.7,0-24.8-9.6-24.8-21.4
						l0,0c0-18.9-17.8-34.2-39.7-34.2h-20.2c-22.7,0-41.2,15.9-41.2,35.5v1.9c0,10-9.5,18.2-21.1,18.2h-1.3
						c-11.5,0-20.9-8.1-20.9-18v-65c0-12.3-11.6-22.3-25.9-22.3h-1.6c-14.4,0-26,10-26,22.4v30.9c0,12.6-11.8,22.7-26.4,22.7h-0.7
						c-15.5,0-28-10.8-28-24.1V353.4c0-100.5,95.5-185.1,212.3-186.2c61.2-0.6,116.7,20.5,156.7,55
						C416.1,256.2,440.5,303.1,440.5,355z"/>
					<path class="st26" d="M478,405.6v145.1c0,11.9-8.6,21.5-19.1,21.5h-0.4c-11.8,0-21.4-10.8-21.4-24v-72.5
						c0-16.3-11.8-29.5-26.2-29.5h-2.2c-14.7,0-26.7,13.4-26.7,30v60.4c0,10.3-7.4,18.6-16.6,18.6l0,0c-8,0-14.6-7.3-14.6-16.4
						v-43.6c0-8.3-6-15-13.3-15h-1.3c-6.6,0-12,6-12,13.5v17.8c0,11.5-8.3,20.8-18.5,20.8h-0.8c-11,0-19.9-10-19.9-22.4v-104
						c0-60,43.3-108.6,96.6-108.6l0,0C434.9,297.2,478,345.7,478,405.6z"/>
				</g>
				<path class="st27" d="M461,551.2L461,551.2c-5.5,0-10-4.5-10-10v-83c0-5.5,4.5-10,10-10l0,0c5.5,0,10,4.5,10,10v83
					C471,546.7,466.5,551.2,461,551.2z"/>
				<path class="st27" d="M379,413.2L379,413.2c-5.5,0-10-4.5-10-10v-83c0-5.5,4.5-10,10-10l0,0c5.5,0,10,4.5,10,10v83
					C389,408.7,384.5,413.2,379,413.2z"/>
				<path class="st27" d="M356,477.2L356,477.2c-5.5,0-10-4.5-10-10l0,0c0-5.5,4.5-10,10-10l0,0c5.5,0,10,4.5,10,10l0,0
					C366,472.7,361.5,477.2,356,477.2z"/>
				<path class="st27" d="M441.5,407.2L441.5,407.2c-12.4,0-22.5-10.1-22.5-22.5l0,0c0-12.4,10.1-22.5,22.5-22.5l0,0
					c12.4,0,22.5,10.1,22.5,22.5l0,0C464,397.1,453.9,407.2,441.5,407.2z"/>
				<path class="st27" d="M312,444.2L312,444.2c-2.8,0-5-2.2-5-5v-40c0-2.8,2.2-5,5-5l0,0c2.8,0,5,2.2,5,5v40
					C317,442,314.8,444.2,312,444.2z"/>
			</g>
			<path class="st26" d="M153,534.9v86.7c0,4.2-3.4,7.6-7.6,7.6h-11.6c-3.2,0-5.8-2.6-5.8-5.8l0,0c0-5.7-4.6-10.3-10.3-10.3l0,0
				c-5.9,0-10.8,4.8-10.8,10.8v42.4c0,8.2-6.7,14.9-14.9,14.9l0,0c-7.8,0-14.1-6.3-14.1-14.1V594c0-9.8-7.9-17.8-17.8-17.8H60
				c-8.8,0-16,7.2-16,16V682c0,7.9-6.4,14.3-14.3,14.3l0,0c-7.6,0-13.8-6.2-13.8-13.8v-142c0-39.4,31.9-71.3,71.3-71.3
				c18.1,0,34.6,7.4,46.4,19.2S153,516.7,153,534.9z"/>
			<path class="st27" d="M139.5,617.2L139.5,617.2c-4.7,0-8.5-3.8-8.5-8.5v-34c0-4.7,3.8-8.5,8.5-8.5l0,0c4.7,0,8.5,3.8,8.5,8.5v34
				C148,613.4,144.2,617.2,139.5,617.2z"/>
			<path class="st27" d="M53.5,548.2L53.5,548.2c-4.7,0-8.5-3.8-8.5-8.5v-34c0-4.7,3.8-8.5,8.5-8.5l0,0c4.7,0,8.5,3.8,8.5,8.5v34
				C62,544.4,58.2,548.2,53.5,548.2z"/>
			<path class="st27" d="M126.5,530.2L126.5,530.2c-4.7,0-8.5-3.8-8.5-8.5l0,0c0-4.7,3.8-8.5,8.5-8.5l0,0c4.7,0,8.5,3.8,8.5,8.5l0,0
				C135,526.4,131.2,530.2,126.5,530.2z"/>
			<path class="st27" d="M96,608.2L96,608.2c-6.6,0-12-5.4-12-12v-1.4c0-5.9,4.8-10.6,10.6-10.6H96c6.6,0,12,5.4,12,12l0,0
				C108,602.8,102.6,608.2,96,608.2z"/>
			<path class="st27" d="M27.5,664.2L27.5,664.2c-3,0-5.5-2.5-5.5-5.5v-69c0-3,2.5-5.5,5.5-5.5l0,0c3,0,5.5,2.5,5.5,5.5v69
				C33,661.7,30.5,664.2,27.5,664.2z"/>
		</g>
		<path class="st26" d="M149,435L149,435c-5.5,0-10-4.5-10-10v-40c0-5.5,4.5-10,10-10l0,0c5.5,0,10,4.5,10,10v40
			C159,430.5,154.5,435,149,435z"/>
		<path class="st26" d="M256.3,441L256.3,441c-9.2,0-16.7-7.5-16.7-16.7v-66.7c0-9.2,7.5-16.7,16.7-16.7l0,0
			c9.2,0,16.7,7.5,16.7,16.7v66.7C273,433.5,265.5,441,256.3,441z"/>
		<path class="st26" d="M311.3,279L311.3,279c-9.2,0-16.7-7.5-16.7-16.7l0,0c0-9.2,7.5-16.7,16.7-16.7l0,0c9.2,0,16.7,7.5,16.7,16.7
			l0,0C328,271.5,320.5,279,311.3,279z"/>
		<path class="st26" d="M104,301L104,301c-17.1,0-31-13.9-31-31l0,0c0-17.1,13.9-31,31-31l0,0c17.1,0,31,13.9,31,31l0,0
			C135,287.1,121.1,301,104,301z"/>
		<path class="st26" d="M30.5,459h2c4.1,0,7.5-3.4,7.5-7.5v-85c0-4.1-3.4-7.5-7.5-7.5h-2c-4.1,0-7.5,3.4-7.5,7.5v85
			C23,455.6,26.4,459,30.5,459z"/>
		<path class="st26" d="M202.5,321h2c4.1,0,7.5-3.4,7.5-7.5v-106c0-4.1-3.4-7.5-7.5-7.5h-2c-4.1,0-7.5,3.4-7.5,7.5v106
			C195,317.6,198.4,321,202.5,321z"/>
	</g>
</g>
<g id="Layer_13">
	<path class="st33" d="M475.7,283.7l-1.2,0.6c-12.2,6-27,0.9-33-11.3l-0.2-0.4c-6.3-12.9-1-28.4,11.9-34.7h0.1L475.7,283.7z"/>
	<path class="st33" d="M288.2,126.3l-0.8,1.1c-8.3,10.8-23.8,12.8-34.5,4.5l-0.4-0.3c-11.4-8.7-13.5-25-4.7-36.4l0,0L288.2,126.3z"
		/>
	<path class="st17" d="M1230.4,320.8l-0.8,0.1c-11.7,1.2-22.2-7.4-23.3-19.1l0,0c-1.2-12.1,7.6-22.9,19.8-24.1h0.1L1230.4,320.8z"/>
	<path class="st17" d="M1061.2,217.4l0.3,0.7c5.2,10.6,0.8,23.4-9.7,28.6l0,0c-10.9,5.4-24.1,0.9-29.5-10.1v-0.1L1061.2,217.4z"/>
	<path class="st17" d="M479,113.8l0.3,0.5c4,8.2,0.6,18-7.5,22l0,0c-8.4,4.1-18.6,0.7-22.8-7.8v-0.1L479,113.8z"/>
	<path class="st17" d="M1235.7,619.5l2.3-4c3-5.3,9.8-7.1,15.1-4.1l7.1,4c5.5,3.1,7.3,10.1,4.2,15.6l-2.1,3.6L1235.7,619.5z"/>
	<path class="st17" d="M979.3,652.1l-4.4,1.2c-5.9,1.6-11.9-1.9-13.5-7.8l-2.1-7.9c-1.6-6.1,2-12.3,8.1-14l4-1.1L979.3,652.1z"/>
	<path class="st17" d="M932.3,612.6l-3.2-3.2c-4.3-4.3-4.3-11.3,0-15.6l5.8-5.7c4.5-4.4,11.7-4.4,16.1,0l3,3L932.3,612.6z"/>
	<path class="st21" d="M936.2,273.3l-0.8,1.1c-8.3,10.8-23.8,12.8-34.5,4.5l-0.3-0.3c-11.3-8.7-13.5-25-4.7-36.4v-0.1L936.2,273.3z"
		/>
	<path class="st21" d="M514.5,153.9l0.4-0.5c6.5-7.4,17.8-8.2,25.3-1.7l0,0c7.7,6.7,8.5,18.4,1.7,26.1v0.1L514.5,153.9z"/>
	<path class="st21" d="M775.9,156.8l0.3-0.4c5.2-6.4,14.6-7.3,21-2.1l0,0c6.6,5.4,7.6,15.1,2.2,21.7l0,0L775.9,156.8z"/>
	<path class="st21" d="M545.9,644.8l0.3-0.4c5.2-6.4,14.6-7.3,21-2.1l0,0c6.6,5.4,7.6,15.1,2.2,21.7l0,0L545.9,644.8z"/>
	<path class="st21" d="M836.2,646.6l0.4,0.4c5.9,5.7,6,15.2,0.3,21.1l0,0c-5.9,6.1-15.7,6.2-21.8,0.3l0,0L836.2,646.6z"/>
	<path class="st33" d="M323.8,592.3l0.4-0.3c7.7-6.2,18.9-5,25.1,2.7l0,0c6.3,7.8,5,19.1-2.7,25.4l-0.2,0.2L323.8,592.3z"/>
	<path class="st33" d="M268.8,582l-0.2-0.4c-4.4-8.8-0.8-19.5,8-23.9l0,0c8.9-4.5,19.8-0.8,24.2,8.1l0.1,0.2L268.8,582z"/>
	<path class="st33" d="M38.3,209.9l-0.5-0.1c-9.8-1.2-16.8-10.1-15.6-19.9l0,0c1.2-9.9,10.2-16.9,20.1-15.8h0.3L38.3,209.9z"/>
	<path class="st33" d="M1164.7,71.2l0.2-0.2c3.6-5.2,10.7-6.5,15.8-2.9l0,0c5.2,3.6,6.6,10.8,3,16l-0.1,0.1L1164.7,71.2z"/>
	<path class="st33" d="M855.5,200.6v-0.3c-0.4-6.3,4.3-11.7,10.6-12.1l0,0c6.3-0.4,11.8,4.4,12.3,10.7v0.2L855.5,200.6z"/>
</g>
<g id="Layer_2">
	
		<linearGradient id="SVGID_2_" gradientUnits="userSpaceOnUse" x1="-4" y1="-667" x2="1286" y2="-667" gradientTransform="matrix(1 0 0 -1 0 86)">
		<stop  offset="0" style="stop-color:#332924"/>
		<stop  offset="1" style="stop-color:#332924"/>
	</linearGradient>
	<rect x="-4" y="730" class="st34" width="1290" height="46"/>
</g>
</svg>
