<?xml version="1.0" encoding="utf-8"?>
<!-- Generator: Adobe Illustrator 25.0.1, SVG Export Plug-In . SVG Version: 6.00 Build 0)  -->
<svg version="1.1" id="Réteg_1" xmlns="http://www.w3.org/2000/svg" xmlns:xlink="http://www.w3.org/1999/xlink" x="0px" y="0px"
	 viewBox="0 0 24 24" style="enable-background:new 0 0 24 24;" xml:space="preserve">
<style type="text/css">
	.st0{fill:#9CB380;}
</style>
<path class="st0" d="M9.9,17.6l-1.8,1.7c-1,1-2.5,1-3.5,0s-1-2.5,0-3.5l0,0l4.5-4.6c0.9-0.9,2.4-1,3.4-0.1l0.1,0.1
	c0.4,0.4,1,0.4,1.4,0s0.4-1,0-1.4c-0.1-0.1-0.1-0.1-0.2-0.2c-1.8-1.5-4.4-1.4-6.1,0.2l-4.6,4.5c-1.7,1.8-1.6,4.7,0.3,6.3
	c1.7,1.6,4.3,1.6,6.1,0l1.7-1.7c0.4-0.4,0.3-1-0.1-1.4C10.9,17.3,10.3,17.3,9.9,17.6z M20.6,3.4c-1.8-1.7-4.6-1.7-6.3,0l-1.7,1.7
	c-0.4,0.4-0.3,1,0.1,1.4c0.4,0.3,0.9,0.4,1.3,0l1.7-1.7c1-1,2.5-1,3.5,0c1,1,1,2.5,0,3.5l-4.5,4.6c-0.9,0.9-2.4,1-3.4,0.1l-0.1-0.1
	c-0.4-0.4-1-0.4-1.4,0s-0.4,1,0,1.4c0.1,0.1,0.1,0.1,0.2,0.2c1.8,1.5,4.4,1.4,6.1-0.2l4.5-4.6C22.3,8,22.4,5.1,20.6,3.4z"/>
</svg>
