<?xml version="1.0" encoding="utf-8"?>
<!-- Generator: Adobe Illustrator 25.0.1, SVG Export Plug-In . SVG Version: 6.00 Build 0)  -->
<svg version="1.1" id="Réteg_1" xmlns="http://www.w3.org/2000/svg" xmlns:xlink="http://www.w3.org/1999/xlink" x="0px" y="0px"
	 viewBox="0 0 64 64" style="enable-background:new 0 0 64 64;" xml:space="preserve">
<style type="text/css">
	.st0{fill:#414535;}
	.st1{fill:#9CB380;}
	.st2{fill:#33241F;}
</style>
<path class="st0" d="M38,52L38,52L22,62l4-10l0,0C12.7,52,2,41.3,2,28v-2C2,12.7,12.7,2,26,2h12c13.3,0,24,10.7,24,24v2
	C62,41.3,51.3,52,38,52z"/>
<path class="st1" d="M41,34v2c0,10.9-7.3,20.4-17.9,23.2L26,52C12.7,52,2,41.3,2,28v-2c0-5.9,2.2-11.6,6.1-16H17
	C30.3,10,41,20.7,41,34z"/>
<path class="st2" d="M32,20L32,20c1.1,0,2,0.9,2,2v18c0,1.1-0.9,2-2,2l0,0c-1.1,0-2-0.9-2-2V22C30,20.9,30.9,20,32,20z"/>
<circle class="st2" cx="32" cy="14" r="2"/>
</svg>
